<?xml version="1.0" encoding="UTF-8"?>
<svg id="_图层_1" data-name="图层 1" xmlns="http://www.w3.org/2000/svg" viewBox="290 260 1353 1353" width="56" height="56">
  <defs>
    <style>
      .cls-1 {
        fill: #231815;
      }

      .cls-1, .cls-2, .cls-3 {
        stroke-width: 0px;
      }

      .cls-2 {
        fill: #0d469c;
      }

      .cls-3 {
        fill: #fff;
      }
    </style>
  </defs>
  <rect class="cls-3" width="1948.54" height="1948.54"/>
  <g>
    <g>
      <path class="cls-1" d="m433.85,1146.93l20.8,66.84,19.16-66.84h24.36l-34.31,108.73h-19.46l-21.09-64.91-20.5,64.91h-19.31l-35.65-108.73h26.14l20.35,66.84,19.61-66.84h19.9Z"/>
      <path class="cls-1" d="m607.49,1211.84h-42.48v21.84h49.17v21.98h-74.57v-108.73h72.79v21.84h-47.38v21.39h42.48v21.69Z"/>
      <path class="cls-1" d="m685.92,1255.66h-25.4v-108.73h25.4v108.73Z"/>
      <path class="cls-1" d="m738.5,1251.35c-6.24-4.16-10.3-10.55-12.18-19.16l21.24-11.14c1.09,4.46,2.7,7.8,4.83,10.03,2.13,2.23,5.02,3.34,8.69,3.34,4.55,0,7.77-1.76,9.66-5.27,1.88-3.51,2.82-9.08,2.82-16.71v-65.51h25.4v68.03c0,15.15-3.59,26.05-10.77,32.68-7.18,6.64-16.32,9.95-27.41,9.95-8.62,0-16.04-2.08-22.28-6.24Z"/>
      <path class="cls-1" d="m874.27,1255.66h-25.4v-108.73h25.4v108.73Z"/>
      <path class="cls-1" d="m993.25,1211.84h-42.48v21.84h49.17v21.98h-74.57v-108.73h72.79v21.84h-47.38v21.39h42.48v21.69Z"/>
    </g>
    <path class="cls-2" d="m1251.48,803.95c-32.43-14.82-106.56-2.05-137.98-.81-.27.01-3.13.1-3.13.13l26.77,47.81c.78-.04,1.49.32,2.28.28,22.1-1.01,74.53-17.73,93.24,6.48,24.55,31.77-63.46,50.11-81.99,58.87-5.63,2.66,2.63,39.62,2.46,48.09.5.13,2.28-.55,4.1-1.56,41.48-23.04,92.81-23.48,119.79-68.88,18.78-31.61,8.94-74.66-25.53-90.41Z"/>
    <path class="cls-2" d="m712.95,727.85c-41.11-6.87-81.54-16.74-120.75-31.29-43.04-15.98-94.24-40.64-126.68-73.72-9.42-9.6-44.59-56.81-35.32-71.33-10.81,16.94-58.9,72.88-76.5,82.58,42.47,100.42,208.72,152.56,308.33,172.9,10.98,2.24,16.67,2.78,31.42,1.02l19.5-80.16Z"/>
    <g>
      <path class="cls-2" d="m1401.32,1219.21c-55.92,0-112.8-7.84-168.73-23.67-60.89-17.2-114.85-46.45-167.04-74.75-25.9-14.04-52.67-28.56-80.11-41.53l-17.52-8.32c-45.06-21.47-91.67-43.65-138.16-56.24-29.61-8-60.41-13.05-91.57-14.97-26.02-1.64-48.7-.68-70.06,1.67l-4.11,17.26c91.77-6.88,183.92,13.95,268,49.97,43.07,18.45,83.11,42.9,123.35,66.69,22.91,13.54,46.78,25.36,71.23,35.84,30.95,13.28,65.51,25.79,97.48,35.63,107.4,33.08,236.57,44.79,343.4,3.46,7.61-2.94,27.61-7.77,31.9-14.95,1.55-2.6,1.46-7.67,1.11-12.59-62.61,23.84-130.03,36.52-199.17,36.52Z"/>
      <path class="cls-2" d="m739.18,983.47c32.25,2.01,64.17,7.23,94.83,15.53,47.92,12.95,95.19,35.47,140.9,57.26l17.48,8.3c27.84,13.15,54.81,27.78,80.91,41.92,53.78,29.15,104.58,56.68,163.7,73.4,123.61,34.98,251.61,29.56,362.77-14.12v-162.8c-29.71,40.84-77.12,59.79-125.95,68.02-88.35,14.89-187.27,5.04-266.65-37.99-61.93-33.57-130.19-55.41-198.2-72.82-103.84-26.57-211.75-44.39-318.82-51.32l-18.05,75.8c20.72-1.89,42.52-2.69,67.07-1.19Z"/>
    </g>
    <path class="cls-2" d="m749.54,787.7l18.53-9.27,4.63,30.12-52.15,84.99c17.98,1.45,35.96,2.78,53.94,4.83l160.41-256.65,13.9,34.75,18.54-9.27,37.07,69.51-74.72,186.6c28.12,5.79,56.07,12.14,83.7,19.21,68.02,17.4,136.27,39.24,198.2,72.82,5.29,2.86,10.86,5.2,16.31,7.78l-286.05-460.18-145.97,220.12-60.24-101.95-134.39,222.44h37.07l97.31-150.61,13.9,34.75Z"/>
    <g>
      <path class="cls-1" d="m701.64,1382.71h44.96v-72.1h-44.96v-14.34h121.79v53.73c0,3.43-1.21,6.36-3.62,8.77-2.41,2.41-5.34,3.62-8.77,3.62h-19.07l-4.73-12.94h14.34c.93,0,1.69-.3,2.3-.91.6-.6.9-1.37.9-2.3v-35.63h-38.83v72.1h57.48v14.34h-121.79v-14.34Z"/>
      <path class="cls-1" d="m899.7,1381.18v-17.12h-17.82l21.99-18.37h-19.35v-48.3h116.5v33.13c0,4.36-1.49,7.98-4.45,10.86-2.97,2.88-6.59,4.31-10.86,4.31h-2.78l22.13,18.37h-20.74v31.46h-18.65v-37.58h10.86l-13.92-12.25h-38.28l-13.92,12.25h7.66v23.24l-6.4,14.75h-18.37l6.4-14.75Zm35.07-64.72v-6.68h-34.52v6.68h34.52Zm0,16.84v-6.54h-34.52v6.54h34.52Zm50.66-16.84v-6.68h-31.87v6.68h31.87Zm-4.31,16.84c1.2,0,2.23-.42,3.06-1.25s1.25-1.85,1.25-3.06v-2.23h-31.87v6.54h27.56Z"/>
    </g>
  </g>
</svg>