<?xml version="1.0" standalone="no"?><!DOCTYPE svg PUBLIC "-//W3C//DTD SVG 1.1//EN"
        "http://www.w3.org/Graphics/SVG/1.1/DTD/svg11.dtd">
<svg t="1742665198776" class="icon" viewBox="0 0 1024 1024" version="1.1" xmlns="http://www.w3.org/2000/svg"
     p-id="15392" xmlns:xlink="http://www.w3.org/1999/xlink" width="16" height="16">
    <path d="M170.666667 938.666667a42.666667 42.666667 0 0 1-42.666667-42.666667V128a42.666667 42.666667 0 0 1 42.666667-42.666667h597.333333a42.666667 42.666667 0 0 1 42.666667 42.666667v128h-85.333334V170.666667H213.333333v682.666666h512v-85.333333h85.333334v128a42.666667 42.666667 0 0 1-42.666667 42.666667H170.666667z m554.666666-273.749334V554.666667h-298.666666v-85.333334h298.666666V359.082667a8.533333 8.533333 0 0 1 13.866667-6.656L938.666667 512l-199.466667 159.573333a8.533333 8.533333 0 0 1-13.866667-6.656z"
          p-id="15393" fill="#2c2c2c"></path>
</svg>