<?xml version="1.0" standalone="no"?><!DOCTYPE svg PUBLIC "-//W3C//DTD SVG 1.1//EN"
        "http://www.w3.org/Graphics/SVG/1.1/DTD/svg11.dtd">
<svg t="1742665669712" class="icon" viewBox="0 0 1146 1024" version="1.1" xmlns="http://www.w3.org/2000/svg"
     p-id="30403" xmlns:xlink="http://www.w3.org/1999/xlink" width="16" height="16">
    <path d="M1123.639243 354.373377c-35.070586-41.45053-92.470974-47.830473-133.921504-12.759886L572.022469 86.530369c-3.189972-19.120728-9.569915-35.070586-22.329801-51.001343-35.070586-41.45053-92.451873-47.830473-133.902403-12.759887-19.13983 15.949858-28.709745 38.260558-31.899716 60.571258L157.49807 217.261901c-25.500672-22.3107-57.400388-28.690643-89.281003-19.120728-51.001343 15.930757-79.711088 66.951201-63.761229 117.971646 9.550813 38.260558 44.640501 63.780331 79.711087 66.970303l54.210417 239.133264c-25.519773 15.949858-44.640501 47.830473-44.640502 79.711088 0 54.210416 41.45053 95.660946 95.641845 95.660946 22.329802 0 44.640501-9.550813 60.59036-22.329802l226.392478 133.921504c0 6.379943-3.189972 12.759887-3.189971 19.13983 0 54.210416 41.45053 95.660946 95.660946 95.660946 54.191315 0 95.641845-41.45053 95.641844-95.660946 0-15.949858-3.17087-31.899716-9.550813-44.640501l353.914938-379.434711c31.899716 12.740785 70.160275 9.550813 98.850918-12.759887 44.640501-35.070586 51.020445-95.660946 15.949858-137.111476z m-165.802119 114.800776L610.283027 839.019848c-9.569915-3.189972-15.949858-6.379943-25.519773-6.379944l-51.001343-239.152365c38.260558-19.101627 66.951201-57.381286 70.141173-105.211759l353.93404-19.13983zM511.43211 854.988808L285.039631 721.067303c0-6.379943 3.189972-12.759887 3.189972-19.139829 0-9.550813-3.189972-19.120728-6.379944-28.690644l117.990748-95.660946c19.120728 15.949858 44.640501 25.500672 73.331145 25.500672l51.001343 239.152365-12.740785 12.759887zM202.138571 609.456499l-54.210416-239.152365 207.252649 89.300104c0 6.379943-3.17087 12.759887-3.17087 19.120728a132.183256 132.183256 0 0 0 9.550813 51.020445l-117.971646 92.470975c-12.759887-6.379943-25.500672-12.759887-41.45053-12.759887z m-12.759886-337.984181L399.840407 150.329802c3.17087 3.189972 3.17087 6.379943 6.360842 9.550813 12.759887 12.759887 25.519773 22.348903 41.450529 28.709745v168.99209c-28.690643 6.379943-51.001343 22.329802-66.951201 44.640502l-191.321892-82.90106c0-15.949858 3.189972-31.899716 0-47.830473zM556.091713 150.329802l401.764513 245.513207v9.569914l-363.503955 22.329802c-15.949858-35.089688-47.830473-60.59036-82.90106-70.160275V188.571258c9.550813-3.189972 19.13983-9.550813 28.690644-15.949858 6.379943-6.360842 12.759887-12.740785 15.949858-22.3107z"
          p-id="30404" fill="#ffffff"></path>
</svg>