<?xml version="1.0" standalone="no"?><!DOCTYPE svg PUBLIC "-//W3C//DTD SVG 1.1//EN"
        "http://www.w3.org/Graphics/SVG/1.1/DTD/svg11.dtd">
<svg t="1742665352865" class="icon" viewBox="0 0 1024 1024" version="1.1" xmlns="http://www.w3.org/2000/svg"
     p-id="18219" xmlns:xlink="http://www.w3.org/1999/xlink" width="16" height="16">
    <path d="M512 900.096c-213.99552 0-388.096-174.10048-388.096-388.096s174.15168-388.096 388.22912-388.096c212.19328 0 386.23232 174.08 387.97312 388.05504C900.096 725.99552 725.99552 900.096 512 900.096z m0.13312-712.00768c-178.67776 0-324.0448 145.3056-324.0448 323.91168 0 178.67776 145.36704 324.0448 324.0448 324.0448 178.67776 0 324.0448-145.3568 324.0448-324.0448-0.01024-178.60608-145.36704-323.91168-324.0448-323.91168zM469.8624 718.4384V436.24448h82.688V718.4384h-82.688z m42.27072-314.9824c-14.46912 0-27.86304-5.09952-36.75136-13.98784-8.88832-8.72448-13.98784-22.12864-13.98784-36.75136 0-14.46912 5.09952-27.86304 13.98784-36.75136 11.79648-9.63584 23.37792-13.98784 36.75136-13.98784 13.38368 0 24.96512 4.352 36.4544 13.71136 9.94304 12.07296 14.29504 23.6544 14.29504 37.03808 0 14.46912-5.09952 27.86304-13.98784 36.75136-11.80672 9.6256-23.38816 13.9776-36.7616 13.9776z"
          p-id="18220" fill="#2c2c2c"></path>
</svg>