<?xml version="1.0" standalone="no"?><!DOCTYPE svg PUBLIC "-//W3C//DTD SVG 1.1//EN"
        "http://www.w3.org/Graphics/SVG/1.1/DTD/svg11.dtd">
<svg t="1742668401504" class="icon" viewBox="0 0 1024 1024" version="1.1" xmlns="http://www.w3.org/2000/svg"
     p-id="44051" width="16" height="16" xmlns:xlink="http://www.w3.org/1999/xlink">
    <path d="M780.007475 65.267493 243.903497 65.267493c-98.599645 0-178.61298 80.013335-178.61298 178.744987l0 536.105001c0 98.642624 80.013335 178.61298 178.61298 178.61298l536.105001 0c98.772584 0 178.700985-79.969333 178.700985-178.61298L958.709483 244.01248C958.70846 145.280828 878.781082 65.267493 780.007475 65.267493zM869.44546 735.353974c0 74.082252-60.119239 134.069485-134.113487 134.069485L288.578999 869.423459c-73.994248 0-134.027529-59.987233-134.027529-134.069485L154.55147 288.687982c0-74.03825 60.033281-134.113487 134.027529-134.113487l446.752973 0c73.994248 0 134.113487 60.075237 134.113487 134.113487L869.44546 735.353974zM467.279984 333.319481c0-24.607444 20.068058-44.6315 44.675502-44.6315 24.693402 0 44.675502 20.024056 44.675502 44.6315 0 24.6494-19.9821 44.675502-44.675502 44.675502C487.348042 377.994983 467.279984 357.968881 467.279984 333.319481zM601.916381 720.999035l0 13.875009L422.43052 734.874043l0-13.875009c14.57188-0.261966 25.391297-4.88424 32.634258-13.82896 4.53734-5.760191 12.216229-35.907815 12.216229-61.124126l0-133.981481c1.396813-44.763506-8.114818-56.06183-13.525038-63.130829-5.41022-7.066953-15.881712-11.08036-31.324426-11.954263l0-14.351869L556.630988 422.627507l0 223.419466c0 25.217335 7.67889 55.93187 13.175067 62.998823C575.128271 716.114794 585.948711 720.128201 601.916381 720.999035z"
          p-id="44052" fill="#d81e06"></path>
</svg>