<?xml version="1.0" standalone="no"?><!DOCTYPE svg PUBLIC "-//W3C//DTD SVG 1.1//EN"
        "http://www.w3.org/Graphics/SVG/1.1/DTD/svg11.dtd">
<svg t="1742668338748" class="icon" viewBox="0 0 1024 1024" version="1.1" xmlns="http://www.w3.org/2000/svg"
     p-id="42729" width="16" height="16" xmlns:xlink="http://www.w3.org/1999/xlink">
    <path d="M640 384l-256 0 0 256 256 0 0-256zM554.666667 554.666667l-85.333333 0 0-85.333333 85.333333 0 0 85.333333zM896 469.333333l0-85.333333-85.333333 0 0-85.333333c0-47.146667-38.186667-85.333333-85.333333-85.333333l-85.333333 0 0-85.333333-85.333333 0 0 85.333333-85.333333 0 0-85.333333-85.333333 0 0 85.333333-85.333333 0c-47.146667 0-85.333333 38.186667-85.333333 85.333333l0 85.333333-85.333333 0 0 85.333333 85.333333 0 0 85.333333-85.333333 0 0 85.333333 85.333333 0 0 85.333333c0 47.146667 38.186667 85.333333 85.333333 85.333333l85.333333 0 0 85.333333 85.333333 0 0-85.333333 85.333333 0 0 85.333333 85.333333 0 0-85.333333 85.333333 0c47.146667 0 85.333333-38.186667 85.333333-85.333333l0-85.333333 85.333333 0 0-85.333333-85.333333 0 0-85.333333 85.333333 0zM725.333333 725.333333l-426.666667 0 0-426.666667 426.666667 0 0 426.666667z"
          fill="#05900f" p-id="42730"></path>
</svg>