<?xml version="1.0" standalone="no"?><!DOCTYPE svg PUBLIC "-//W3C//DTD SVG 1.1//EN"
        "http://www.w3.org/Graphics/SVG/1.1/DTD/svg11.dtd">
<svg t="1742665571921" class="icon" viewBox="0 0 1024 1024" version="1.1" xmlns="http://www.w3.org/2000/svg"
     p-id="26855" xmlns:xlink="http://www.w3.org/1999/xlink" width="16" height="16">
    <path d="M858.349 411.87c-4.488-12.77-18.141-19.836-31.16-16.129-13.016 3.707-20.898 16.906-17.992 30.125 38.406 134.375-18.734 277.742-139.043 348.863s-273.458 52.071-372.68-46.354c-99.219-98.426-119.496-251.418-49.344-372.293s213.051-179.168 347.734-141.844c13.668 3.773 27.805-4.25 31.574-17.918s-4.254-27.805-17.922-31.574C452.579 121.28 286.075 189.19 204.302 330.018c-81.77 140.828-58.215 319.098 57.332 433.852s293.973 137.082 434.234 54.344C836.13 735.471 902.896 568.507 858.349 411.87z m0 0"
          fill="#ffffff" p-id="26856"></path>
    <path d="M400.282 552.159l-74.754-108.543h-22.527v146.09h22.527v-109.91h0.684l75.434 109.91h21.843v-146.09h-22.183v108.543h-1.024z m151.891-89.43v-19.113H447.384v146.09h108.203v-19.117h-86.016v-46.418h77.825v-19.118h-77.825v-42.324h82.602zM699.29 557.28h-0.684l-30.039-113.665h-23.211L615.321 557.28h-0.684l-28.672-113.665h-24.918l41.984 146.09h23.895l29.695-112.641h0.684L687 589.705h23.895l41.98-146.09h-25.258L699.29 557.28z m-42.328-239.277h51.199v57.687c0 14.137 11.465 25.598 25.602 25.598 14.141 0 25.602-11.461 25.602-25.598v-57.687h51.199c14.137 0 25.598-11.461 25.598-25.598 0-14.141-11.461-25.602-25.598-25.602h-51.199V209.46c0-14.137-11.461-25.602-25.602-25.602-14.137 0-25.602 11.465-25.602 25.602v57.343h-51.199c-14.137 0-25.598 11.461-25.598 25.602 0 14.137 11.461 25.598 25.598 25.598z m0 0"
          fill="#ffffff" p-id="26857"></path>
</svg>