<?xml version="1.0" standalone="no"?><!DOCTYPE svg PUBLIC "-//W3C//DTD SVG 1.1//EN"
        "http://www.w3.org/Graphics/SVG/1.1/DTD/svg11.dtd">
<svg t="1742668166644" class="icon" viewBox="0 0 1024 1024" version="1.1" xmlns="http://www.w3.org/2000/svg"
     p-id="36387" width="16" height="16" xmlns:xlink="http://www.w3.org/1999/xlink">
    <path d="M281.6 921.6a25.6 25.6 0 0 1 0-51.2h204.8v-102.4H179.2a102.4 102.4 0 0 1-102.4-102.4V204.8a102.4 102.4 0 0 1 102.4-102.4h665.6a102.4 102.4 0 0 1 102.4 102.4v460.8a102.4 102.4 0 0 1-102.4 102.4H537.6v102.4h204.8a25.6 25.6 0 0 1 0 51.2H281.6zM844.8 153.6H179.2a51.2 51.2 0 0 0-51.072 47.36L128 204.8v460.8a51.2 51.2 0 0 0 47.36 51.072L179.2 716.8h665.6a51.2 51.2 0 0 0 51.072-47.36L896 665.6V204.8a51.2 51.2 0 0 0-47.36-51.072L844.8 153.6z"
          fill="#ffffff" p-id="36388"></path>
    <path d="M387.8144 596.8896c26.5216 0 50.1248-6.4512 70.784-19.3536 20.6592-12.9024 36.6848-30.9504 48.0256-54.1184 11.3408-23.168 17.024-49.8176 17.024-79.9232s-5.6832-56.7552-17.024-79.9232c-11.3408-23.168-27.3664-41.216-48.0256-54.1184-20.6592-12.9024-44.2624-19.3536-70.784-19.3536s-50.048 6.4512-70.6048 19.3536c-20.5568 12.9024-36.5568 30.9504-48.0256 54.1184-11.4688 23.168-17.2032 49.8176-17.2032 79.9232s5.7344 56.7552 17.2032 79.9232c11.4688 23.168 27.4688 41.216 48.0256 54.1184 20.5568 12.9024 44.0832 19.3536 70.6048 19.3536z m0-45.8752a67.6096 67.6096 0 0 1-41.3952-13.44c-12.0576-8.96-21.4528-21.632-28.1344-37.9904-6.6816-16.384-10.0352-35.072-10.0352-56.0896 0-21.248 3.328-40.0128 10.0352-56.2688 6.6816-16.256 16.0768-28.8512 28.1344-37.8112a67.6096 67.6096 0 0 1 41.3952-13.44c15.5392 0 29.3888 4.48 41.5744 13.44 12.1856 8.96 21.632 21.5552 28.3136 37.8112 6.6816 16.256 10.0352 34.9952 10.0352 56.2688 0 21.0176-3.328 39.7312-10.0352 56.0896-6.6816 16.384-16.128 29.0304-28.3136 37.9904a68.4032 68.4032 0 0 1-41.5744 13.44z m279.9104 45.8752c21.0176 0 39.8336-3.84 56.448-11.4688 16.6144-7.6544 29.5168-18.3296 38.7072-32.0768 9.216-13.7472 13.7984-29.2096 13.7984-46.4128 0-26.2912-7.6544-46.848-22.9376-61.6448-15.2832-14.8224-39.7824-25.216-73.472-31.1808-21.0176-3.84-35.712-8.704-44.0832-14.6944-8.3712-5.9648-12.544-14.592-12.544-25.8048 0-11.6992 3.9936-20.608 12.0064-26.7008 8.0128-6.0928 20.0192-9.1392 36.0192-9.1392 14.8224 0 26.5728 2.9952 35.3024 8.96 8.704 5.9648 15.36 14.8224 19.8912 26.5216l44.8-20.7872c-6.4512-20.3008-18.2784-35.7888-35.4816-46.4128-17.2032-10.624-39.168-15.9488-65.9456-15.9488-21.0176 0-39.296 3.6352-54.8352 10.9312-15.5392 7.296-27.4176 17.4336-35.6608 30.464-8.2432 13.0304-12.3648 27.904-12.3648 44.6208 0 23.424 7.296 42.1632 21.8624 56.2688 14.592 14.08 37.1456 23.8848 67.7376 29.3888 23.168 4.3008 39.4752 10.0352 48.9216 17.2032s14.1568 16.9728 14.1568 29.3888c0 13.1328-4.48 23.2448-13.44 30.2848-8.96 7.04-22.0416 10.5728-39.2448 10.5728-17.2032 0-31.4112-3.584-42.6496-10.752-11.2384-7.168-18.9952-17.664-23.296-31.5392l-45.1584 21.1456a86.4512 86.4512 0 0 0 38.7072 50.8928c19.3536 11.9552 43.5968 17.92 72.7552 17.92z"
          fill="#ffffff" p-id="36389"></path>
</svg>