<svg xmlns="http://www.w3.org/2000/svg" version="1.1" viewBox="230 130 590 720" width="16" height="16"><g stroke-width="2.00" fill="none" stroke-linecap="butt">
<path stroke="#def1cf" d="&#10;  M 501.97 166.18&#10;  L 497.65 166.25&#10;  A 1.87 1.86 87.6 0 1 495.76 164.51&#10;  L 495.10 154.66"/>
<path stroke="#e0ecdb" stroke-opacity="0.757" d="&#10;  M 495.11 149.96&#10;  L 495.11 145.98"/>
<path stroke="#9ac187" stroke-opacity="0.757" d="&#10;  M 456.23 176.57&#10;  Q 455.04 175.63 453.74 175.54&#10;  Q 453.22 175.50 452.86 175.89&#10;  Q 452.19 176.61 451.88 177.59&#10;  Q 451.83 177.74 451.69 177.82&#10;  L 451.39 178.00&#10;  Q 451.04 178.20 451.00 177.80&#10;  L 449.92 166.49"/>
<path stroke="#def1cf" d="&#10;  M 641.27 286.17&#10;  Q 641.22 280.98 638.39 276.96"/>
<path stroke="#b4da9b" stroke-opacity="0.757" d="&#10;  M 617.06 309.74&#10;  Q 614.33 305.24 615.35 299.96"/>
<path stroke="#e0ecdb" stroke-opacity="0.757" d="&#10;  M 612.07 340.72&#10;  L 605.38 341.12&#10;  Q 604.86 341.15 604.99 340.65&#10;  L 606.47 334.97"/>
<path stroke="#b5d59e" stroke-opacity="0.655" d="&#10;  M 582.88 206.15&#10;  Q 583.50 205.00 581.01 204.69&#10;  A 0.05 0.05 0.0 0 1 581.00 204.60&#10;  Q 581.18 204.54 581.25 204.57&#10;  Q 582.17 204.86 582.88 204.43&#10;  Q 583.30 204.17 583.01 203.77&#10;  L 582.36 202.92&#10;  Q 582.03 202.47 582.21 201.94&#10;  Q 582.35 201.53 582.14 201.18&#10;  Q 581.90 200.76 582.24 200.43&#10;  Q 582.53 200.15 582.54 199.70"/>
<path stroke="#b4da9b" stroke-opacity="0.757" d="&#10;  M 725.63 336.78&#10;  L 721.33 334.97&#10;  Q 720.85 334.77 721.04 334.28&#10;  L 723.17 328.68"/>
<path stroke="#e0ecdb" stroke-opacity="0.757" d="&#10;  M 500.10 316.71&#10;  L 500.12 315.96"/>
<path stroke="#e0ecdb" stroke-opacity="0.757" d="&#10;  M 481.78 327.84&#10;  L 481.86 335.46"/>
<path stroke="#9ac187" stroke-opacity="0.757" d="&#10;  M 343.34 424.85&#10;  Q 342.70 427.56 342.07 430.00&#10;  Q 341.11 433.71 336.92 432.88"/>
<path stroke="#e9eae8" stroke-opacity="0.655" d="&#10;  M 663.03 335.20&#10;  Q 659.12 337.77 655.44 338.04"/>
<path stroke="#e0ecdb" stroke-opacity="0.757" d="&#10;  M 261.79 346.36&#10;  L 263.96 346.43"/>
<path stroke="#cadfc0" d="&#10;  M 275.73 346.81&#10;  Q 277.42 347.58 276.86 349.75&#10;  Q 276.09 352.74 276.05 353.81"/>
<path stroke="#e0ecdb" stroke-opacity="0.757" d="&#10;  M 271.54 353.81&#10;  L 269.79 353.92"/>
<path stroke="#9ac187" stroke-opacity="0.757" d="&#10;  M 280.28 346.91&#10;  Q 280.29 347.74 281.40 349.36&#10;  Q 281.72 349.83 281.30 350.21&#10;  L 280.70 350.73&#10;  Q 280.02 351.33 280.92 351.33&#10;  L 283.26 351.33&#10;  A 0.63 0.63 0.0 0 0 283.64 350.20&#10;  L 282.14 349.05&#10;  Q 281.27 348.39 282.36 348.38&#10;  L 286.72 348.33"/>
<path stroke="#e0ecdb" stroke-opacity="0.757" d="&#10;  M 500.13 531.24&#10;  L 500.26 530.20"/>
<path stroke="#cadfc0" d="&#10;  M 500.26 530.20&#10;  L 500.30 514.81"/>
<path stroke="#e0ecdb" stroke-opacity="0.757" d="&#10;  M 500.30 514.81&#10;  L 500.18 512.80"/>
<path stroke="#e9eae8" stroke-opacity="0.655" d="&#10;  M 500.14 511.55&#10;  L 500.14 509.96"/>
<path stroke="#e0ecdb" stroke-opacity="0.757" d="&#10;  M 500.15 509.20&#10;  L 500.13 487.00"/>
<path stroke="#cadfc0" d="&#10;  M 500.10 479.56&#10;  Q 500.63 478.99 500.05 478.70"/>
<path stroke="#cadfc0" d="&#10;  M 500.10 478.51&#10;  Q 500.61 478.13 500.07 477.69"/>
<path stroke="#cadfc0" d="&#10;  M 500.10 477.55&#10;  Q 500.53 477.07 500.07 476.70"/>
<path stroke="#9ac187" stroke-opacity="0.757" d="&#10;  M 500.30 514.81&#10;  L 500.17 522.69"/>
<path stroke="#9ac187" stroke-opacity="0.757" d="&#10;  M 500.26 530.20&#10;  L 500.14 523.33"/>
<path stroke="#b5d59e" stroke-opacity="0.655" d="&#10;  M 286.97 592.69&#10;  L 294.21 592.70"/>
<path stroke="#b4da9b" stroke-opacity="0.757" d="&#10;  M 327.17 592.76&#10;  L 335.22 592.75"/>
<path stroke="#b4da9b" stroke-opacity="0.757" d="&#10;  M 347.33 592.76&#10;  L 354.77 592.74"/>
<path stroke="#a9d190" d="&#10;  M 354.77 592.74&#10;  Q 359.89 594.81 364.44 598.08&#10;  Q 366.85 599.81 368.54 600.07&#10;  Q 371.58 600.52 368.62 601.39&#10;  Q 368.41 601.46 367.05 601.50&#10;  Q 366.95 601.50 366.90 601.59&#10;  Q 366.82 601.74 366.87 601.86&#10;  Q 366.92 601.97 367.13 602.01&#10;  Q 370.29 602.50 373.45 602.29"/>
<path stroke="#b4da9b" stroke-opacity="0.757" d="&#10;  M 373.45 602.29&#10;  Q 373.78 602.72 373.46 603.45"/>
<path stroke="#9ac187" stroke-opacity="0.757" d="&#10;  M 355.68 592.73&#10;  Q 355.38 592.64 354.77 592.74"/>
<path stroke="#9ac187" stroke-opacity="0.757" d="&#10;  M 363.73 593.50&#10;  L 373.45 602.29"/>
<path stroke="#97b887" stroke-opacity="0.651" d="&#10;  M 726.12 431.78&#10;  L 726.11 439.65"/>
<path stroke="#97b887" stroke-opacity="0.651" d="&#10;  M 726.14 442.29&#10;  L 726.11 443.21"/>
<path stroke="#9ac187" stroke-opacity="0.757" d="&#10;  M 725.92 446.45&#10;  Q 725.51 447.09 725.94 448.29"/>
<path stroke="#a9d190" d="&#10;  M 726.13 482.78&#10;  L 721.34 482.60&#10;  A 0.94 0.94 0.0 0 0 720.52 483.02&#10;  L 717.85 487.04"/>
<path stroke="#b4da9b" stroke-opacity="0.757" d="&#10;  M 624.22 603.15&#10;  Q 624.73 601.82 627.24 601.91"/>
<path stroke="#a9d190" d="&#10;  M 627.24 601.91&#10;  Q 629.03 602.17 630.35 601.53&#10;  Q 630.81 601.30 631.02 600.83&#10;  Q 631.60 599.53 632.42 598.37&#10;  Q 633.49 596.84 633.60 595.74&#10;  Q 633.73 594.44 633.78 593.00"/>
<path stroke="#b5d59e" stroke-opacity="0.655" d="&#10;  M 698.11 592.66&#10;  L 705.37 592.59"/>
<path stroke="#9ac187" stroke-opacity="0.757" d="&#10;  M 629.76 593.21&#10;  L 632.85 594.46&#10;  A 0.13 0.13 0.0 0 1 632.90 594.66&#10;  L 632.65 594.99&#10;  A 0.03 0.02 38.0 0 0 632.66 595.03&#10;  Q 632.83 595.13 632.89 595.05&#10;  A 0.17 0.09 -82.0 0 1 632.98 595.31&#10;  Q 631.12 598.35 629.65 601.60&#10;  Q 629.65 601.61 629.63 601.62&#10;  L 629.37 601.67&#10;  Q 629.13 601.72 629.22 601.50&#10;  L 631.71 595.29&#10;  Q 631.71 595.27 631.72 595.27&#10;  Q 631.84 595.26 631.97 595.24&#10;  Q 632.62 595.16 631.99 595.11&#10;  Q 631.85 595.10 631.71 595.18&#10;  Q 631.54 595.27 631.35 595.25&#10;  Q 629.68 595.06 629.32 596.38&#10;  Q 629.20 596.84 628.82 597.13&#10;  L 626.11 599.17&#10;  Q 625.72 599.46 625.98 599.88&#10;  L 627.24 601.91"/>
<path stroke="#b5d59e" stroke-opacity="0.655" d="&#10;  M 787.93 592.82&#10;  L 780.70 592.78"/>
<path stroke="#e0ecdb" stroke-opacity="0.757" d="&#10;  M 757.71 411.80&#10;  Q 757.75 411.67 757.80 411.55&#10;  Q 757.87 411.38 757.69 411.38&#10;  L 757.21 411.40"/>
<path stroke="#cadfc0" d="&#10;  M 234.27 406.73&#10;  L 233.79 406.46"/>
<path stroke="#cadfc0" d="&#10;  M 234.55 407.33&#10;  Q 233.92 407.41 234.02 407.64"/>
<path stroke="#cadfc0" d="&#10;  M 481.79 446.95&#10;  Q 481.36 447.85 481.91 448.05"/>
<path stroke="#9ac187" stroke-opacity="0.757" d="&#10;  M 464.33 501.22&#10;  Q 464.41 505.68 460.67 508.64"/>
<path stroke="#e0ecdb" stroke-opacity="0.757" d="&#10;  M 495.66 727.29&#10;  L 495.66 727.96"/>
<path stroke="#e0ecdb" stroke-opacity="0.757" d="&#10;  M 495.66 728.27&#10;  L 495.66 728.96"/>
<path stroke="#e0ecdb" stroke-opacity="0.757" d="&#10;  M 495.66 729.23&#10;  L 495.66 729.97"/>
<path stroke="#e0ecdb" stroke-opacity="0.757" d="&#10;  M 495.66 730.22&#10;  L 495.65 730.97"/>
<path stroke="#e0ecdb" stroke-opacity="0.757" d="&#10;  M 495.65 731.25&#10;  L 495.65 731.96"/>
<path stroke="#e0ecdb" stroke-opacity="0.757" d="&#10;  M 495.65 732.29&#10;  L 495.64 732.96"/>
<path stroke="#e0ecdb" stroke-opacity="0.757" d="&#10;  M 686.04 661.11&#10;  L 686.96 661.10"/>
<path stroke="#cadfc0" d="&#10;  M 689.44 661.10&#10;  Q 689.93 661.66 690.30 661.08"/>
<path stroke="#cadfc0" d="&#10;  M 691.44 661.10&#10;  Q 691.88 661.72 692.31 661.08"/>
<path stroke="#cadfc0" d="&#10;  M 693.44 661.10&#10;  Q 693.89 661.69 694.31 661.08"/>
<path stroke="#cadfc0" d="&#10;  M 695.44 661.10&#10;  Q 695.90 661.72 696.31 661.08"/>
<path stroke="#cadfc0" d="&#10;  M 696.44 661.10&#10;  Q 696.90 661.68 697.31 661.08"/>
<path stroke="#cadfc0" d="&#10;  M 697.46 661.10&#10;  Q 697.80 661.32 698.29 661.18"/>
<path stroke="#e0ecdb" stroke-opacity="0.757" d="&#10;  M 698.29 661.18&#10;  Q 698.70 661.23 699.04 661.07"/>
<path stroke="#e0ecdb" stroke-opacity="0.757" d="&#10;  M 699.23 661.10&#10;  L 705.02 661.10"/>
<path stroke="#e0ecdb" stroke-opacity="0.757" d="&#10;  M 705.21 661.09&#10;  Q 705.63 661.17 706.04 661.09"/>
<path stroke="#cadfc0" d="&#10;  M 706.45 661.23&#10;  Q 707.42 661.46 707.55 661.08"/>
<path stroke="#cadfc0" d="&#10;  M 707.95 661.11&#10;  Q 708.56 661.51 708.80 661.07"/>
<path stroke="#9ac187" stroke-opacity="0.757" d="&#10;  M 698.21 661.09&#10;  Q 698.25 661.13 698.29 661.18"/>
<path stroke="#e0ecdb" stroke-opacity="0.757" d="&#10;  M 436.84 791.99&#10;  Q 436.95 792.46 436.75 792.81"/>
<path stroke="#9ac187" stroke-opacity="0.757" d="&#10;  M 628.00 596.53&#10;  Q 627.86 596.74 627.71 596.94&#10;  Q 627.86 596.74 628.00 596.53"/>
<path stroke="#9ac187" stroke-opacity="0.757" d="&#10;  M 628.00 596.53&#10;  Q 628.11 596.44 628.22 596.35&#10;  Q 628.23 596.35 628.22 596.35&#10;  Q 628.11 596.44 628.00 596.53"/>
</g>
<path fill="#9fa69c" fill-opacity="0.306" d="&#10;  M 0.42 0.73&#10;  Q 0.43 0.63 0.52 0.62&#10;  A 0.10 0.06 5.2 0 1 0.64 0.71&#10;  Q 0.58 0.78 0.54 0.82&#10;  A 0.09 0.07 75.1 0 1 0.42 0.73&#10;  Z"/>
<path fill="#ffffff" d="&#10;  M 501.97 166.18&#10;  L 497.65 166.25&#10;  A 1.87 1.86 87.6 0 1 495.76 164.51&#10;  L 495.10 154.66&#10;  L 495.11 149.96&#10;  L 495.11 145.98&#10;  L 495.15 142.62&#10;  A 0.20 0.20 0.0 0 0 494.83 142.46&#10;  L 488.63 147.14&#10;  Q 488.20 147.46 487.92 146.99&#10;  L 486.83 145.09&#10;  A 1.69 1.68 -37.6 0 1 487.10 143.05&#10;  L 497.48 132.66&#10;  A 1.03 1.02 -44.0 0 1 498.95 132.68&#10;  L 510.03 144.41&#10;  Q 511.15 145.60 509.57 146.03&#10;  L 509.06 146.16&#10;  A 2.95 2.95 0.0 0 1 506.28 145.48&#10;  L 503.04 142.48&#10;  A 0.53 0.53 0.0 0 0 502.15 142.86&#10;  L 501.97 166.18&#10;  Z"/>
<path fill="#a3c894" fill-opacity="0.514" d="&#10;  M 495.11 149.96&#10;  L 495.11 145.98&#10;  L 495.11 149.96&#10;  Z"/>
<path fill="#bce39f" d="&#10;  M 501.97 166.18&#10;  L 501.99 230.01&#10;  A 0.58 0.58 0.0 0 0 502.54 230.59&#10;  C 506.39 230.80 512.40 230.84 517.56 231.66&#10;  Q 522.38 232.43 525.04 232.70&#10;  Q 528.26 233.03 532.49 233.95&#10;  Q 538.49 235.25 547.69 237.63&#10;  Q 555.64 239.70 561.86 242.82&#10;  Q 562.32 243.05 562.32 243.58&#10;  L 562.32 251.48&#10;  Q 562.32 252.45 561.43 252.07&#10;  Q 532.63 239.91 502.26 239.23&#10;  Q 476.64 238.67 452.99 244.71&#10;  Q 442.10 247.49 432.25 252.03&#10;  Q 431.12 252.55 431.12 251.30&#10;  L 431.12 244.45&#10;  Q 431.12 243.07 432.40 242.56&#10;  Q 433.74 242.02 436.66 240.97&#10;  Q 464.46 230.86 494.71 230.49&#10;  A 0.32 0.32 0.0 0 0 495.03 230.17&#10;  L 495.10 154.66&#10;  L 495.76 164.51&#10;  A 1.87 1.86 87.6 0 0 497.65 166.25&#10;  L 501.97 166.18&#10;  Z"/>
<path fill="#a3c894" fill-opacity="0.514" d="&#10;  M 456.23 176.57&#10;  Q 455.04 175.63 453.74 175.54&#10;  Q 453.22 175.50 452.86 175.89&#10;  Q 452.19 176.61 451.88 177.59&#10;  Q 451.83 177.74 451.69 177.82&#10;  L 451.39 178.00&#10;  Q 451.04 178.20 451.00 177.80&#10;  L 449.92 166.49&#10;  Q 448.78 165.02 450.15 163.66&#10;  Q 451.42 162.39 452.79 161.77&#10;  Q 453.93 161.26 454.82 162.15&#10;  Q 458.91 166.27 463.65 171.56&#10;  Q 464.71 172.74 464.21 175.13&#10;  Q 464.10 175.66 463.66 175.33&#10;  L 457.02 170.26&#10;  Q 456.45 169.83 456.43 170.54&#10;  L 456.23 176.57&#10;  Z"/>
<path fill="#9fa69c" fill-opacity="0.306" d="&#10;  M 431.48 201.43&#10;  L 431.05 202.50&#10;  A 0.29 0.28 -87.7 0 1 430.86 202.68&#10;  Q 430.49 202.82 430.17 202.36&#10;  A 1.04 1.04 0.0 0 0 429.26 201.91&#10;  Q 428.92 201.93 428.13 202.39&#10;  Q 427.71 202.64 427.56 202.17&#10;  Q 427.10 200.78 427.10 200.03&#10;  Q 427.10 176.04 426.92 164.80&#10;  Q 426.89 162.33 429.33 162.08&#10;  L 431.07 161.90&#10;  Q 433.41 161.66 433.43 164.02&#10;  L 433.65 202.47&#10;  Q 433.65 203.21 433.05 202.78&#10;  Q 432.29 202.24 431.98 201.43&#10;  Q 431.73 200.80 431.48 201.43&#10;  Z"/>
<path fill="#9fa69c" fill-opacity="0.306" d="&#10;  M 540.20 170.45&#10;  L 533.42 176.41&#10;  Q 532.92 176.85 532.80 176.19&#10;  Q 532.47 174.33 532.83 173.78&#10;  Q 535.43 169.80 542.29 163.02&#10;  Q 544.51 160.82 546.44 162.80&#10;  Q 551.40 167.88 554.91 173.29&#10;  Q 555.32 173.92 555.33 174.00&#10;  Q 555.58 175.54 554.21 174.48&#10;  L 549.16 170.56&#10;  A 1.06 0.97 -72.4 0 0 547.58 171.47&#10;  Q 547.45 182.24 547.99 194.05&#10;  Q 548.11 196.65 547.43 199.41&#10;  Q 546.94 201.41 546.93 204.88&#10;  A 0.41 0.41 0.0 0 1 546.61 205.28&#10;  L 542.17 206.24&#10;  Q 542.05 206.27 542.04 206.15&#10;  Q 541.00 194.66 541.24 187.27&#10;  Q 541.55 177.77 541.53 171.05&#10;  A 0.80 0.80 0.0 0 0 540.20 170.45&#10;  Z"/>
<path fill="#9fa69c" fill-opacity="0.306" d="&#10;  M 593.19 167.25&#10;  L 596.73 168.67&#10;  A 1.53 1.52 -62.9 0 1 597.45 170.91&#10;  Q 596.27 172.76 593.90 172.88&#10;  Q 591.91 172.98 590.75 171.56&#10;  Q 589.34 169.83 590.47 167.44&#10;  A 2.44 1.67 14.1 0 1 592.84 166.56&#10;  Q 592.97 166.58 592.94 166.84&#10;  Q 592.91 167.14 593.19 167.25&#10;  Z"/>
<path fill="#95be80" fill-opacity="0.996" d="&#10;  M 456.23 176.57&#10;  L 456.40 220.96&#10;  A 0.39 0.39 0.0 0 1 456.01 221.35&#10;  L 449.94 221.35&#10;  Q 449.55 221.35 449.55 220.96&#10;  L 449.92 166.49&#10;  L 451.00 177.80&#10;  Q 451.04 178.20 451.39 178.00&#10;  L 451.69 177.82&#10;  Q 451.83 177.74 451.88 177.59&#10;  Q 452.19 176.61 452.86 175.89&#10;  Q 453.22 175.50 453.74 175.54&#10;  Q 455.04 175.63 456.23 176.57&#10;  Z"/>
<ellipse fill="#9fa69c" fill-opacity="0.306" cx="0.00" cy="0.00" transform="translate(334.85,174.25) rotate(90.0)" rx="1.40" ry="0.04"/>
<path fill="#ffffff" d="&#10;  M 395.76 178.59&#10;  A 0.47 0.46 68.0 0 0 396.09 177.80&#10;  Q 394.14 175.76 396.06 173.52&#10;  Q 396.39 173.13 396.91 173.09&#10;  Q 399.52 172.92 400.40 175.43&#10;  Q 400.58 175.95 400.20 176.36&#10;  L 399.19 177.45&#10;  Q 398.86 177.80 398.92 178.28&#10;  Q 399.11 180.03 398.33 181.56&#10;  Q 398.11 181.98 397.65 181.95&#10;  Q 396.12 181.86 394.55 180.44&#10;  A 1.06 1.06 0.0 0 1 395.26 178.59&#10;  L 395.76 178.59&#10;  Z"/>
<path fill="#ffffff" d="&#10;  M 392.16 179.14&#10;  L 393.18 180.82&#10;  A 0.81 0.79 -48.7 0 1 393.22 181.57&#10;  Q 391.88 184.43 389.08 183.26&#10;  Q 388.59 183.06 388.08 183.17&#10;  Q 385.68 183.71 385.08 181.67&#10;  A 2.51 2.51 0.0 0 1 387.48 178.44&#10;  L 390.01 178.44&#10;  Q 390.83 178.44 390.18 177.93&#10;  Q 388.21 176.39 389.28 174.31&#10;  A 1.58 1.58 0.0 0 1 391.73 173.84&#10;  Q 394.36 176.16 392.23 178.46&#10;  Q 391.94 178.77 392.16 179.14&#10;  Z"/>
<ellipse fill="#a3c894" fill-opacity="0.514" cx="0.00" cy="0.00" transform="translate(337.23,177.12) rotate(0.5)" rx="0.65" ry="0.02"/>
<ellipse fill="#ffffff" cx="0.00" cy="0.00" transform="translate(403.14,181.10) rotate(2.5)" rx="3.74" ry="3.01"/>
<path fill="#ffffff" d="&#10;  M 641.27 286.17&#10;  Q 641.22 280.98 638.39 276.96&#10;  L 715.60 200.91&#10;  Q 715.96 200.55 715.95 200.04&#10;  C 715.91 197.13 715.57 194.53 716.12 192.68&#10;  Q 716.37 191.86 717.24 191.12&#10;  Q 724.08 185.29 728.09 181.11&#10;  Q 729.19 179.96 729.20 181.56&#10;  L 729.30 198.18&#10;  A 0.79 0.77 -23.0 0 1 729.07 198.73&#10;  L 641.27 286.17&#10;  Z"/>
<path fill="#ffffff" d="&#10;  M 612.07 340.72&#10;  L 605.38 341.12&#10;  Q 604.86 341.15 604.99 340.65&#10;  L 606.47 334.97&#10;  Q 626.90 314.90 647.40 294.90&#10;  Q 660.87 281.76 670.45 272.10&#10;  Q 676.03 266.48 684.74 258.12&#10;  Q 694.50 248.75 704.52 238.41&#10;  Q 712.98 229.68 718.60 224.20&#10;  Q 737.06 206.23 751.24 191.74&#10;  Q 752.46 190.49 752.96 189.79&#10;  A 1.13 1.12 -28.0 0 0 753.16 189.15&#10;  L 753.16 182.75&#10;  A 0.55 0.55 0.0 0 1 753.71 182.20&#10;  L 771.51 182.20&#10;  Q 772.83 182.20 771.88 183.12&#10;  C 763.56 191.18 755.41 199.87 748.63 206.57&#10;  Q 694.38 260.24 674.85 279.61&#10;  Q 654.17 300.12 641.07 312.69&#10;  Q 633.32 320.12 626.72 326.60&#10;  Q 619.46 333.73 612.07 340.72&#10;  Z"/>
<ellipse fill="#ffffff" cx="0.00" cy="0.00" transform="translate(396.28,185.90) rotate(52.9)" rx="2.96" ry="2.92"/>
<ellipse fill="#ffffff" cx="0.00" cy="0.00" transform="translate(389.13,188.62) rotate(16.7)" rx="4.09" ry="3.35"/>
<path fill="#ffffff" d="&#10;  M 400.29 189.73&#10;  Q 399.68 189.24 399.62 188.53&#10;  Q 399.57 187.91 400.73 185.95&#10;  Q 401.00 185.50 401.52 185.64&#10;  Q 402.41 185.88 404.46 186.04&#10;  C 407.07 186.24 408.93 188.74 406.37 190.82&#10;  Q 405.59 191.45 405.36 191.77&#10;  Q 404.44 193.06 402.83 191.77&#10;  L 400.29 189.73&#10;  Z"/>
<path fill="#bce39f" d="&#10;  M 582.88 206.15&#10;  Q 583.50 205.00 581.01 204.69&#10;  A 0.05 0.05 0.0 0 1 581.00 204.60&#10;  Q 581.18 204.54 581.25 204.57&#10;  Q 582.17 204.86 582.88 204.43&#10;  Q 583.30 204.17 583.01 203.77&#10;  L 582.36 202.92&#10;  Q 582.03 202.47 582.21 201.94&#10;  Q 582.35 201.53 582.14 201.18&#10;  Q 581.90 200.76 582.24 200.43&#10;  Q 582.53 200.15 582.54 199.70&#10;  L 636.16 199.45&#10;  Q 636.66 199.45 636.83 198.99&#10;  Q 638.64 194.14 642.06 191.33&#10;  C 649.44 185.26 660.54 188.49 664.37 196.93&#10;  Q 666.01 200.53 665.49 205.14&#10;  Q 665.03 209.20 662.03 212.16&#10;  C 657.12 217.01 649.45 218.16 643.50 214.62&#10;  Q 640.15 212.63 637.84 208.52&#10;  Q 637.06 207.13 635.46 207.09&#10;  Q 630.48 206.98 592.00 206.84&#10;  Q 589.10 206.83 582.88 206.15&#10;  Z&#10;  M 662.8910 200.0625&#10;  A 11.77 11.51 -12.5 0 0 648.9088 191.3728&#10;  A 11.77 11.51 -12.5 0 0 639.9090 205.1575&#10;  A 11.77 11.51 -12.5 0 0 653.8912 213.8472&#10;  A 11.77 11.51 -12.5 0 0 662.8910 200.0625&#10;  Z"/>
<ellipse fill="#ffffff" cx="0.00" cy="0.00" transform="translate(397.43,193.52) rotate(76.7)" rx="3.51" ry="2.73"/>
<ellipse fill="#ffffff" cx="0.00" cy="0.00" transform="translate(391.57,194.46) rotate(88.8)" rx="1.69" ry="1.27"/>
<ellipse fill="#bce39f" cx="0.00" cy="0.00" transform="translate(651.49,202.46) rotate(79.3)" rx="5.13" ry="4.82"/>
<path fill="#9fa69c" fill-opacity="0.306" d="&#10;  M 582.54 199.70&#10;  Q 582.53 200.15 582.24 200.43&#10;  Q 581.90 200.76 582.14 201.18&#10;  Q 582.35 201.53 582.21 201.94&#10;  Q 582.03 202.47 582.36 202.92&#10;  L 583.01 203.77&#10;  Q 583.30 204.17 582.88 204.43&#10;  Q 582.17 204.86 581.25 204.57&#10;  Q 581.18 204.54 581.00 204.60&#10;  A 0.05 0.05 0.0 0 0 581.01 204.69&#10;  Q 583.50 205.00 582.88 206.15&#10;  Q 581.64 206.53 580.50 206.14&#10;  Q 578.79 205.57 578.35 205.52&#10;  C 576.35 205.32 574.97 205.40 573.48 204.60&#10;  C 571.31 203.44 569.16 203.33 567.00 202.28&#10;  Q 565.41 201.51 562.00 201.06&#10;  Q 561.41 200.98 559.95 200.24&#10;  Q 559.16 199.84 560.05 199.90&#10;  Q 561.87 200.02 569.25 199.46&#10;  Q 574.30 199.07 582.54 199.70&#10;  Z"/>
<path fill="#bce39f" d="&#10;  M 321.35 225.11&#10;  A 12.50 12.50 0.0 0 1 308.85 237.61&#10;  A 12.50 12.50 0.0 0 1 296.35 225.11&#10;  A 12.50 12.50 0.0 0 1 308.85 212.61&#10;  A 12.50 12.50 0.0 0 1 321.35 225.11&#10;  Z&#10;  M 304.9879 230.9796&#10;  A 6.96 6.62 124.3 0 0 314.3788 228.9605&#10;  A 6.96 6.62 124.3 0 0 312.8321 219.4804&#10;  A 6.96 6.62 124.3 0 0 303.4412 221.4995&#10;  A 6.96 6.62 124.3 0 0 304.9879 230.9796&#10;  Z"/>
<path fill="#bce39f" d="&#10;  M 725.63 336.78&#10;  L 721.33 334.97&#10;  Q 720.85 334.77 721.04 334.28&#10;  L 723.17 328.68&#10;  L 809.59 241.78&#10;  A 5.67 5.67 0.0 0 1 813.60 240.12&#10;  L 818.99 240.12&#10;  Q 821.48 240.12 819.75 241.92&#10;  Q 782.13 281.12 737.26 325.51&#10;  Q 731.47 331.23 725.63 336.78&#10;  Z"/>
<path fill="#ffffff" d="&#10;  M 383.69 267.64&#10;  L 378.59 262.92&#10;  A 0.91 0.91 0.0 0 1 378.56 261.62&#10;  L 386.22 253.68&#10;  A 0.91 0.91 0.0 0 1 387.56 253.71&#10;  L 392.03 258.79&#10;  A 0.91 0.91 0.0 0 1 392.01 260.01&#10;  L 384.98 267.59&#10;  A 0.91 0.91 0.0 0 1 383.69 267.64&#10;  Z"/>
<circle fill="#bce39f" cx="750.73" cy="257.53" r="4.39"/>
<path fill="#ffffff" d="&#10;  M 500.10 316.71&#10;  L 500.12 315.96&#10;  C 499.96 314.60 500.03 313.60 501.01 312.52&#10;  Q 505.02 308.11 512.38 301.13&#10;  Q 529.10 285.27 538.98 275.99&#10;  Q 546.74 268.70 561.87 255.32&#10;  A 0.33 0.33 0.0 0 1 562.42 255.57&#10;  Q 562.60 273.72 562.65 292.25&#10;  C 562.66 295.46 562.60 297.58 560.59 299.91&#10;  Q 558.86 301.92 555.55 305.05&#10;  Q 536.38 323.14 501.88 355.81&#10;  Q 501.62 356.05 501.44 356.45&#10;  Q 501.23 356.92 501.01 357.11&#10;  A 0.57 0.56 -20.6 0 1 500.07 356.69&#10;  L 500.10 316.71&#10;  Z"/>
<path fill="#ffffff" d="&#10;  M 481.78 327.84&#10;  L 481.86 335.46&#10;  L 481.90 345.30&#10;  Q 481.90 346.62 480.92 345.74&#10;  Q 455.09 322.69 432.86 301.52&#10;  Q 432.21 300.89 431.43 299.67&#10;  Q 431.15 299.23 431.15 298.70&#10;  L 431.15 256.60&#10;  Q 431.15 256.06 431.51 256.46&#10;  Q 436.00 261.47 436.76 262.06&#10;  Q 441.45 265.69 443.47 267.60&#10;  Q 460.85 283.94 480.27 301.98&#10;  Q 481.77 303.37 481.78 305.50&#10;  Q 481.81 316.68 481.78 327.84&#10;  Z"/>
<path fill="#a3c894" fill-opacity="0.514" d="&#10;  M 293.12 267.12&#10;  Q 293.52 267.08 293.90 267.16&#10;  Q 294.49 267.28 293.92 267.47&#10;  Q 291.85 268.13 291.19 268.14&#10;  Q 264.79 268.57 237.88 268.40&#10;  Q 237.64 268.40 237.64 268.16&#10;  L 237.64 261.10&#10;  Q 237.64 260.80 237.94 260.80&#10;  Q 264.55 260.56 291.50 260.99&#10;  Q 292.27 261.00 294.52 261.67&#10;  Q 296.35 262.21 297.56 262.26&#10;  Q 302.42 262.44 309.08 263.36&#10;  Q 310.24 263.52 310.88 264.13&#10;  A 0.77 0.77 0.0 0 1 310.52 265.44&#10;  Q 308.38 265.93 306.42 265.85&#10;  Q 304.05 265.75 303.09 265.82&#10;  Q 302.04 265.90 300.87 265.98&#10;  Q 299.90 266.04 298.70 266.43&#10;  Q 296.01 267.30 293.12 267.12&#10;  Z&#10;  M 294.7400 266.6204&#10;  A 0.24 0.08 0.1 0 0 294.5001 266.5400&#10;  A 0.24 0.08 0.1 0 0 294.2600 266.6196&#10;  A 0.24 0.08 0.1 0 0 294.4999 266.7000&#10;  A 0.24 0.08 0.1 0 0 294.7400 266.6204&#10;  Z"/>
<path fill="#bce39f" d="&#10;  M 377.59 306.92&#10;  Q 377.29 307.30 376.96 306.96&#10;  L 372.39 302.40&#10;  A 0.72 0.71 41.4 0 1 372.33 301.47&#10;  Q 374.40 298.70 376.73 295.97&#10;  Q 389.01 281.55 407.09 267.84&#10;  Q 409.49 266.02 416.99 261.65&#10;  A 0.18 0.18 0.0 0 1 417.26 261.81&#10;  L 417.26 270.55&#10;  Q 417.26 270.82 417.03 270.98&#10;  Q 407.66 277.71 398.53 285.28&#10;  Q 386.85 294.96 377.59 306.92&#10;  Z"/>
<ellipse fill="#9fa69c" fill-opacity="0.306" cx="0.00" cy="0.00" transform="translate(294.50,266.62) rotate(0.1)" rx="0.24" ry="0.08"/>
<path fill="#ffffff" d="&#10;  M 363.32 286.81&#10;  L 359.46 282.96&#10;  A 0.99 0.99 0.0 0 1 359.38 281.66&#10;  L 367.27 271.32&#10;  A 0.99 0.99 0.0 0 1 368.80 271.27&#10;  L 373.24 276.32&#10;  A 0.99 0.99 0.0 0 1 373.22 277.65&#10;  L 364.75 286.79&#10;  A 0.99 0.99 0.0 0 1 363.32 286.81&#10;  Z"/>
<path fill="#bce39f" d="&#10;  M 638.39 276.96&#10;  Q 641.22 280.98 641.27 286.17&#10;  L 617.06 309.74&#10;  Q 614.33 305.24 615.35 299.96&#10;  L 638.39 276.96&#10;  Z"/>
<circle fill="#ffffff" cx="716.95" cy="292.90" r="4.16"/>
<path fill="#bce39f" d="&#10;  M 668.73 326.71&#10;  L 677.82 321.47&#10;  Q 678.54 321.05 678.97 321.76&#10;  C 680.14 323.70 680.57 326.16 681.25 327.87&#10;  Q 690.70 351.64 694.33 376.81&#10;  Q 694.49 377.91 694.99 383.19&#10;  C 695.27 386.06 695.93 389.03 696.02 391.72&#10;  Q 696.39 403.25 696.18 413.40&#10;  Q 696.12 416.09 695.44 422.07&#10;  Q 695.00 425.83 694.40 430.74&#10;  Q 692.34 447.40 686.90 465.66&#10;  Q 685.57 470.11 680.34 484.60&#10;  Q 678.38 490.05 670.47 505.23&#10;  Q 664.80 516.11 651.85 533.05&#10;  C 648.27 537.74 642.68 543.25 637.85 548.46&#10;  Q 633.69 552.96 632.09 554.48&#10;  Q 617.46 568.36 600.07 578.83&#10;  Q 573.38 594.91 542.92 602.35&#10;  Q 512.68 609.74 480.05 607.02&#10;  Q 478.43 606.89 473.96 606.27&#10;  C 471.51 605.93 468.31 605.77 465.89 605.34&#10;  Q 426.82 598.44 394.78 578.49&#10;  Q 363.29 558.88 341.45 528.58&#10;  Q 332.99 516.84 327.20 506.10&#10;  Q 324.29 500.72 319.16 490.14&#10;  Q 315.55 482.69 312.47 473.44&#10;  Q 306.84 456.55 305.92 451.82&#10;  Q 304.90 446.60 304.83 446.38&#10;  Q 303.71 442.89 303.54 441.03&#10;  Q 303.25 438.00 302.52 434.38&#10;  Q 302.04 432.00 301.60 427.68&#10;  Q 299.16 403.73 301.56 379.81&#10;  Q 301.94 376.12 302.52 373.18&#10;  Q 303.16 369.99 303.61 366.57&#10;  Q 303.79 365.18 304.73 362.01&#10;  C 305.35 359.91 305.44 357.71 306.04 355.85&#10;  Q 307.15 352.38 308.84 346.08&#10;  C 312.93 330.88 319.36 316.42 327.69 302.13&#10;  Q 329.39 299.21 330.41 297.90&#10;  Q 331.91 295.98 333.15 293.86&#10;  A 0.76 0.75 -53.1 0 1 334.31 293.69&#10;  L 341.91 300.73&#10;  Q 342.98 301.73 342.15 302.94&#10;  Q 338.54 308.18 336.63 311.61&#10;  Q 328.57 326.10 322.89 342.64&#10;  Q 310.80 377.82 313.23 415.27&#10;  Q 313.43 418.38 314.60 427.73&#10;  Q 315.49 434.87 316.55 440.14&#10;  Q 325.57 485.15 353.70 522.62&#10;  Q 368.06 541.74 385.25 555.70&#10;  Q 393.40 562.32 401.55 567.23&#10;  Q 410.23 572.45 419.83 577.42&#10;  Q 431.02 583.21 443.37 586.68&#10;  Q 446.86 587.66 448.99 588.36&#10;  Q 452.15 589.39 454.59 590.00&#10;  Q 475.55 595.24 497.22 595.40&#10;  Q 499.53 595.42 511.87 594.65&#10;  Q 519.58 594.17 526.43 593.02&#10;  Q 540.46 590.67 553.06 586.34&#10;  Q 564.84 582.29 571.77 579.26&#10;  Q 593.31 569.85 609.64 556.63&#10;  Q 630.56 539.69 646.35 518.61&#10;  Q 656.24 505.39 662.63 492.14&#10;  Q 672.74 471.19 677.38 452.86&#10;  Q 685.56 420.55 683.07 386.95&#10;  Q 682.39 377.85 680.31 367.16&#10;  Q 676.22 346.16 668.58 327.17&#10;  A 0.37 0.36 63.5 0 1 668.73 326.71&#10;  Z"/>
<path fill="#a3c894" fill-opacity="0.514" d="&#10;  M 615.35 299.96&#10;  Q 614.33 305.24 617.06 309.74&#10;  Q 608.82 317.78 600.54 325.79&#10;  Q 599.04 327.24 598.05 327.99&#10;  Q 596.61 329.08 595.58 330.14&#10;  Q 593.09 332.69 590.58 334.18&#10;  Q 589.89 334.59 590.35 333.92&#10;  L 591.71 331.93&#10;  Q 592.07 331.41 591.44 331.34&#10;  Q 591.05 331.30 590.46 331.04&#10;  A 0.93 0.93 0.0 0 1 589.91 330.31&#10;  Q 589.67 328.58 590.30 326.82&#10;  Q 590.35 326.68 590.23 326.59&#10;  L 589.84 326.33&#10;  Q 589.57 326.14 589.44 326.44&#10;  Q 589.05 327.30 588.55 327.53&#10;  Q 587.57 327.97 588.38 327.11&#10;  Q 601.47 313.18 615.35 299.96&#10;  Z"/>
<ellipse fill="#9fa69c" fill-opacity="0.306" cx="0.00" cy="0.00" transform="translate(265.49,308.09) rotate(-2.8)" rx="0.47" ry="0.08"/>
<path fill="#a3c894" fill-opacity="0.514" d="&#10;  M 266.50 308.13&#10;  Q 267.08 307.95 267.67 308.12&#10;  A 0.01 0.01 0.0 0 1 267.67 308.14&#10;  Q 267.09 308.18 266.50 308.13&#10;  Z"/>
<ellipse fill="#a3c894" fill-opacity="0.514" cx="0.00" cy="0.00" transform="translate(263.80,309.64) rotate(121.8)" rx="0.98" ry="0.19"/>
<ellipse fill="#a3c894" fill-opacity="0.514" cx="0.00" cy="0.00" transform="translate(263.59,312.24) rotate(62.3)" rx="1.03" ry="0.17"/>
<path fill="#ffffff" d="&#10;  M 513.39 404.39&#10;  Q 504.74 412.94 501.11 416.61&#10;  Q 500.14 417.59 500.14 416.21&#10;  L 500.14 371.54&#10;  A 2.38 2.36 -23.3 0 1 500.80 369.90&#10;  Q 508.56 361.87 516.66 354.16&#10;  Q 547.27 325.08 561.66 311.41&#10;  Q 562.59 310.53 562.59 311.81&#10;  L 562.59 356.97&#10;  Q 562.59 357.63 562.10 358.08&#10;  Q 550.84 368.42 547.93 371.18&#10;  Q 524.56 393.33 513.39 404.39&#10;  Z"/>
<path fill="#a3c894" fill-opacity="0.514" d="&#10;  M 266.63 314.27&#10;  Q 265.80 314.48 264.88 314.15&#10;  Q 264.68 314.07 264.64 313.94&#10;  Q 264.58 313.74 264.78 313.81&#10;  Q 265.72 314.16 266.54 313.94&#10;  Q 267.37 313.72 268.02 312.96&#10;  Q 268.16 312.80 268.20 313.00&#10;  Q 268.23 313.14 268.10 313.30&#10;  Q 267.46 314.05 266.63 314.27&#10;  Z"/>
<path fill="#ffffff" d="&#10;  M 481.91 360.79&#10;  L 481.91 402.97&#10;  A 0.50 0.50 0.0 0 1 481.07 403.34&#10;  L 431.53 357.42&#10;  A 0.50 0.50 0.0 0 1 431.37 357.05&#10;  L 431.37 314.88&#10;  A 0.50 0.50 0.0 0 1 432.21 314.51&#10;  L 481.75 360.42&#10;  A 0.50 0.50 0.0 0 1 481.91 360.79&#10;  Z"/>
<path fill="#a3c894" fill-opacity="0.514" d="&#10;  M 500.10 316.71&#10;  L 500.12 315.96&#10;  L 500.10 316.71&#10;  Z"/>
<path fill="#95be80" fill-opacity="0.996" d="&#10;  M 343.34 424.85&#10;  Q 342.70 427.56 342.07 430.00&#10;  Q 341.11 433.71 336.92 432.88&#10;  Q 334.02 417.93 333.81 406.24&#10;  Q 333.70 399.68 334.54 388.44&#10;  Q 335.29 378.38 336.97 370.80&#10;  Q 343.05 343.47 358.67 318.21&#10;  Q 359.80 316.39 361.38 317.85&#10;  L 365.46 321.63&#10;  Q 366.54 322.63 365.70 323.85&#10;  Q 352.88 342.36 347.31 363.93&#10;  Q 346.56 366.84 345.69 369.85&#10;  Q 344.66 373.47 344.40 375.85&#10;  Q 344.09 378.75 343.42 381.62&#10;  Q 343.03 383.30 342.64 387.39&#10;  Q 340.83 406.28 343.34 424.85&#10;  Z"/>
<circle fill="#bce39f" cx="222.64" cy="322.47" r="4.57"/>
<path fill="#9fa69c" fill-opacity="0.306" d="&#10;  M 663.03 335.20&#10;  Q 659.12 337.77 655.44 338.04&#10;  L 648.80 324.22&#10;  Q 648.57 323.76 649.01 323.48&#10;  Q 650.26 322.67 651.41 322.58&#10;  A 0.82 0.81 -67.8 0 0 651.90 322.37&#10;  L 652.58 321.78&#10;  A 0.64 0.64 0.0 0 1 653.46 321.81&#10;  Q 654.34 322.71 655.65 322.51&#10;  Q 656.19 322.43 656.53 322.85&#10;  Q 659.60 326.76 659.87 327.63&#10;  Q 661.17 331.67 663.03 335.20&#10;  Z"/>
<path fill="#a3c894" fill-opacity="0.514" d="&#10;  M 481.86 335.46&#10;  L 481.78 327.84&#10;  L 481.86 335.46&#10;  Z"/>
<path fill="#a3c894" fill-opacity="0.514" d="&#10;  M 723.17 328.68&#10;  L 721.04 334.28&#10;  Q 720.85 334.77 721.33 334.97&#10;  L 725.63 336.78&#10;  Q 719.62 343.45 710.76 350.50&#10;  Q 708.78 352.08 708.24 349.60&#10;  L 707.75 347.39&#10;  Q 707.19 344.79 709.06 342.90&#10;  L 723.17 328.68&#10;  Z"/>
<path fill="#a3c894" fill-opacity="0.514" d="&#10;  M 606.47 334.97&#10;  L 604.99 340.65&#10;  Q 604.86 341.15 605.38 341.12&#10;  L 612.07 340.72&#10;  Q 600.59 352.23 586.21 363.84&#10;  A 1.46 1.46 0.0 0 1 583.92 363.21&#10;  L 582.98 360.64&#10;  Q 582.42 359.10 583.65 357.87&#10;  L 606.47 334.97&#10;  Z"/>
<path fill="#ffffff" d="&#10;  M 655.44 338.04&#10;  Q 659.12 337.77 663.03 335.20&#10;  Q 667.38 345.07 670.32 355.48&#10;  Q 671.32 359.00 671.84 362.24&#10;  C 672.35 365.39 673.17 367.55 673.74 371.18&#10;  Q 675.78 384.18 676.30 400.24&#10;  Q 677.02 422.43 670.38 448.56&#10;  A 0.42 0.42 0.0 0 1 669.76 448.82&#10;  L 662.63 444.70&#10;  Q 662.08 444.39 662.21 443.77&#10;  Q 665.52 428.20 666.48 418.52&#10;  Q 667.89 404.18 666.77 386.94&#10;  C 666.46 382.18 665.24 376.22 664.93 372.31&#10;  C 664.63 368.46 663.40 364.99 662.52 360.80&#10;  Q 662.04 358.46 661.33 356.19&#10;  Q 658.53 347.15 655.44 338.04&#10;  Z"/>
<path fill="#a3c894" fill-opacity="0.514" d="&#10;  M 659.48 394.22&#10;  Q 659.66 394.78 659.65 395.47&#10;  L 659.78 405.28&#10;  L 659.86 409.04&#10;  L 659.72 412.03&#10;  Q 659.55 412.38 659.78 412.74&#10;  C 659.67 415.00 659.77 417.16 659.41 419.39&#10;  Q 658.64 424.17 658.09 428.94&#10;  Q 658.16 429.50 658.06 430.00&#10;  L 653.73 451.98&#10;  Q 653.67 452.26 653.39 452.21&#10;  L 645.67 450.93&#10;  Q 645.49 450.90 645.53 450.72&#10;  Q 646.94 443.27 648.45 436.02&#10;  Q 648.78 434.43 649.25 432.03&#10;  Q 650.88 423.58 651.02 414.97&#10;  L 651.26 413.27&#10;  Q 651.66 404.02 651.52 401.50&#10;  Q 650.90 390.72 650.83 388.67&#10;  Q 650.71 384.74 650.05 381.16&#10;  Q 649.56 378.54 648.62 373.71&#10;  Q 646.23 361.36 641.86 350.77&#10;  Q 641.33 349.48 642.54 348.78&#10;  L 648.11 345.56&#10;  Q 649.32 344.86 649.70 346.21&#10;  Q 652.31 355.59 654.83 364.14&#10;  Q 658.55 376.78 659.48 394.22&#10;  Z"/>
<path fill="#ffffff" d="&#10;  M 261.79 346.36&#10;  L 263.96 346.43&#10;  L 275.73 346.81&#10;  Q 277.42 347.58 276.86 349.75&#10;  Q 276.09 352.74 276.05 353.81&#10;  L 271.54 353.81&#10;  L 269.79 353.92&#10;  L 189.21 354.23&#10;  Q 188.95 354.23 188.95 353.97&#10;  L 188.95 346.39&#10;  Q 188.95 346.08 189.26 346.08&#10;  L 261.79 346.36&#10;  Z"/>
<path fill="#a3c894" fill-opacity="0.514" d="&#10;  M 263.96 346.43&#10;  L 261.79 346.36&#10;  L 263.96 346.43&#10;  Z"/>
<path fill="#95be80" fill-opacity="0.996" d="&#10;  M 280.28 346.91&#10;  Q 280.29 347.74 281.40 349.36&#10;  Q 281.72 349.83 281.30 350.21&#10;  L 280.70 350.73&#10;  Q 280.02 351.33 280.92 351.33&#10;  L 283.26 351.33&#10;  A 0.63 0.63 0.0 0 0 283.64 350.20&#10;  L 282.14 349.05&#10;  Q 281.27 348.39 282.36 348.38&#10;  L 286.72 348.33&#10;  L 292.19 349.62&#10;  A 0.46 0.46 0.0 0 1 292.40 350.40&#10;  Q 292.13 350.66 291.80 350.86&#10;  Q 291.41 351.10 291.09 351.11&#10;  Q 286.81 351.24 283.46 352.85&#10;  Q 281.60 353.75 279.85 353.85&#10;  Q 277.95 353.97 276.05 353.81&#10;  Q 276.09 352.74 276.86 349.75&#10;  Q 277.42 347.58 275.73 346.81&#10;  L 280.28 346.91&#10;  Z"/>
<path fill="#a3c894" fill-opacity="0.514" d="&#10;  M 280.28 346.91&#10;  L 286.72 348.33&#10;  L 282.36 348.38&#10;  Q 281.27 348.39 282.14 349.05&#10;  L 283.64 350.20&#10;  A 0.63 0.63 0.0 0 1 283.26 351.33&#10;  L 280.92 351.33&#10;  Q 280.02 351.33 280.70 350.73&#10;  L 281.30 350.21&#10;  Q 281.72 349.83 281.40 349.36&#10;  Q 280.29 347.74 280.28 346.91&#10;  Z"/>
<path fill="#ffffff" d="&#10;  M 413.41 381.52&#10;  L 413.41 426.81&#10;  A 0.30 0.30 0.0 0 1 412.90 427.03&#10;  L 382.77 397.90&#10;  A 0.30 0.30 0.0 0 1 382.68 397.68&#10;  L 382.68 352.40&#10;  A 0.30 0.30 0.0 0 1 383.19 352.18&#10;  L 413.32 381.30&#10;  A 0.30 0.30 0.0 0 1 413.41 381.52&#10;  Z"/>
<path fill="#a3c894" fill-opacity="0.514" d="&#10;  M 271.54 353.81&#10;  L 269.79 353.92&#10;  L 271.54 353.81&#10;  Z"/>
<path fill="#ffffff" d="&#10;  M 500.13 531.24&#10;  L 500.26 530.20&#10;  L 500.30 514.81&#10;  L 500.18 512.80&#10;  L 500.14 511.55&#10;  L 500.14 509.96&#10;  L 500.15 509.20&#10;  L 500.13 487.00&#10;  L 500.10 479.56&#10;  Q 500.63 478.99 500.05 478.70&#10;  Q 500.08 478.60 500.10 478.51&#10;  Q 500.61 478.13 500.07 477.69&#10;  Q 500.08 477.62 500.10 477.55&#10;  Q 500.53 477.07 500.07 476.70&#10;  Q 500.05 468.58 500.04 460.42&#10;  Q 500.04 459.15 500.65 458.24&#10;  Q 501.31 457.24 502.14 456.39&#10;  Q 508.42 449.96 514.80 443.80&#10;  Q 532.29 426.88 569.46 392.71&#10;  Q 573.95 388.59 599.82 363.75&#10;  C 600.80 362.81 602.15 362.07 602.99 361.24&#10;  Q 606.20 358.10 610.28 354.59&#10;  Q 610.69 354.23 610.82 354.76&#10;  Q 611.33 356.72 611.34 358.76&#10;  Q 611.54 410.36 611.38 485.53&#10;  A 0.10 0.09 24.3 0 1 611.21 485.59&#10;  L 603.43 477.34&#10;  Q 603.28 477.18 603.28 476.97&#10;  L 603.04 436.17&#10;  Q 603.04 435.73 602.72 435.43&#10;  L 595.35 428.61&#10;  A 0.77 0.77 0.0 0 0 594.29 428.61&#10;  L 583.32 438.97&#10;  Q 582.94 439.33 582.94 439.85&#10;  L 582.94 547.78&#10;  A 1.99 1.97 69.5 0 1 582.27 549.27&#10;  L 575.60 555.12&#10;  Q 574.87 555.76 574.87 554.79&#10;  L 574.31 456.87&#10;  A 2.66 2.64 21.3 0 0 573.46 454.95&#10;  L 564.60 446.74&#10;  A 0.35 0.34 21.6 0 0 564.02 446.99&#10;  L 564.02 475.79&#10;  A 2.94 2.92 -21.8 0 1 563.10 477.92&#10;  L 501.22 536.32&#10;  A 0.68 0.67 68.5 0 1 500.08 535.82&#10;  L 500.13 531.24&#10;  Z"/>
<circle fill="#ffffff" cx="795.79" cy="370.99" r="4.10"/>
<path fill="#bce39f" d="&#10;  M 286.97 592.69&#10;  L 294.21 592.70&#10;  L 306.25 592.78&#10;  A 0.65 0.45 90.0 0 0 306.70 592.13&#10;  L 306.93 527.63&#10;  Q 306.95 523.30 311.04 523.17&#10;  L 311.37 523.16&#10;  Q 315.17 523.05 315.17 526.85&#10;  L 315.17 592.00&#10;  A 0.85 0.84 89.7 0 0 316.02 592.85&#10;  L 327.17 592.76&#10;  L 335.22 592.75&#10;  L 347.33 592.76&#10;  L 354.77 592.74&#10;  Q 359.89 594.81 364.44 598.08&#10;  Q 366.85 599.81 368.54 600.07&#10;  Q 371.58 600.52 368.62 601.39&#10;  Q 368.41 601.46 367.05 601.50&#10;  Q 366.95 601.50 366.90 601.59&#10;  Q 366.82 601.74 366.87 601.86&#10;  Q 366.92 601.97 367.13 602.01&#10;  Q 370.29 602.50 373.45 602.29&#10;  Q 373.78 602.72 373.46 603.45&#10;  L 175.36 603.24&#10;  A 0.24 0.23 -0.0 0 1 175.12 603.01&#10;  L 175.12 593.62&#10;  A 0.79 0.78 -0.0 0 1 175.91 592.84&#10;  L 199.82 592.84&#10;  A 0.61 0.61 0.0 0 0 200.43 592.23&#10;  Q 200.58 543.51 200.65 441.25&#10;  C 200.65 438.58 203.07 436.57 205.68 437.13&#10;  C 208.35 437.71 208.96 440.27 208.96 442.77&#10;  Q 209.08 506.07 208.97 592.09&#10;  Q 208.97 592.91 209.78 592.91&#10;  L 221.46 592.91&#10;  Q 221.90 592.91 221.95 592.47&#10;  Q 222.74 586.07 222.75 584.25&#10;  Q 222.82 535.54 222.82 476.29&#10;  Q 222.82 475.98 223.13 475.98&#10;  L 230.84 475.98&#10;  Q 231.05 475.98 231.05 476.18&#10;  L 231.05 592.37&#10;  A 0.31 0.31 0.0 0 0 231.36 592.68&#10;  L 244.02 592.68&#10;  A 0.29 0.25 -0.0 0 0 244.31 592.43&#10;  L 244.31 502.57&#10;  A 0.40 0.39 -0.0 0 1 244.71 502.18&#10;  L 252.56 502.18&#10;  A 0.36 0.36 0.0 0 1 252.92 502.54&#10;  L 252.92 591.61&#10;  Q 252.92 592.89 254.20 592.89&#10;  L 266.42 592.89&#10;  A 0.33 0.33 0.0 0 0 266.75 592.56&#10;  L 267.00 372.83&#10;  Q 267.00 372.30 267.29 371.87&#10;  Q 267.64 371.34 268.71 370.11&#10;  Q 269.46 369.25 270.56 369.13&#10;  C 274.39 368.72 275.50 371.39 275.51 374.79&#10;  Q 275.73 480.01 275.26 592.05&#10;  Q 275.26 592.58 275.79 592.59&#10;  L 286.97 592.69&#10;  Z"/>
<path fill="#95be80" fill-opacity="0.996" d="&#10;  M 726.12 431.78&#10;  L 726.11 439.65&#10;  L 726.14 442.29&#10;  L 726.11 443.21&#10;  L 725.92 446.45&#10;  Q 725.51 447.09 725.94 448.29&#10;  L 726.13 482.78&#10;  L 721.34 482.60&#10;  A 0.94 0.94 0.0 0 0 720.52 483.02&#10;  L 717.85 487.04&#10;  Q 717.86 464.52 718.17 442.00&#10;  Q 718.31 431.67 718.19 422.01&#10;  Q 717.86 395.88 717.86 373.92&#10;  Q 717.86 369.93 721.91 369.53&#10;  Q 721.95 369.53 722.08 369.52&#10;  Q 726.13 369.32 726.13 373.26&#10;  L 726.12 431.78&#10;  Z"/>
<path fill="#bce39f" d="&#10;  M 521.21 412.20&#10;  Q 537.70 396.07 552.60 382.88&#10;  A 1.20 1.19 -43.0 0 1 554.24 382.93&#10;  L 558.52 387.21&#10;  Q 559.34 388.03 558.47 388.78&#10;  Q 556.26 390.71 553.90 392.91&#10;  Q 552.92 393.82 531.19 414.43&#10;  Q 517.08 427.82 501.30 443.71&#10;  Q 500.71 444.29 500.71 443.47&#10;  L 500.65 433.14&#10;  Q 500.65 432.59 501.04 432.20&#10;  Q 513.73 419.51 521.21 412.20&#10;  Z"/>
<path fill="#bce39f" d="&#10;  M 442.94 392.66&#10;  L 448.29 386.90&#10;  A 0.30 0.30 0.0 0 1 448.71 386.88&#10;  L 481.95 417.69&#10;  A 0.30 0.30 0.0 0 1 482.05 417.91&#10;  L 482.05 428.62&#10;  A 0.30 0.30 0.0 0 1 481.55 428.84&#10;  L 442.96 393.08&#10;  A 0.30 0.30 0.0 0 1 442.94 392.66&#10;  Z"/>
<path fill="#ffffff" d="&#10;  M 757.71 411.80&#10;  Q 757.75 411.67 757.80 411.55&#10;  Q 757.87 411.38 757.69 411.38&#10;  L 757.21 411.40&#10;  Q 755.44 412.54 754.17 414.58&#10;  A 0.87 0.87 0.0 0 0 754.15 415.45&#10;  Q 756.97 420.61 757.09 420.83&#10;  Q 758.34 423.24 756.65 425.52&#10;  Q 756.35 425.91 755.88 426.05&#10;  Q 754.12 426.55 753.14 427.58&#10;  Q 752.75 427.98 752.38 427.58&#10;  Q 751.43 426.56 750.62 425.95&#10;  Q 749.77 425.30 749.53 423.90&#10;  Q 749.14 421.58 749.56 420.76&#10;  Q 749.81 420.29 751.68 416.95&#10;  C 752.99 414.59 750.32 411.68 748.56 410.63&#10;  Q 747.82 410.20 748.55 409.76&#10;  Q 751.28 408.13 752.44 405.13&#10;  A 0.89 0.88 39.0 0 0 752.35 404.33&#10;  Q 750.30 401.15 749.47 399.39&#10;  C 748.16 396.63 749.60 395.07 751.12 392.97&#10;  A 2.55 2.54 -54.8 0 1 754.62 392.36&#10;  Q 758.16 394.78 757.55 398.48&#10;  C 757.29 400.04 754.93 403.31 754.20 404.16&#10;  A 0.83 0.78 -39.4 0 0 754.08 405.06&#10;  Q 754.91 406.66 755.82 407.49&#10;  A 0.78 0.75 -67.0 0 0 757.09 406.95&#10;  C 757.15 406.15 757.14 404.78 757.85 403.82&#10;  Q 760.11 400.75 763.50 398.49&#10;  Q 764.89 397.57 765.90 398.90&#10;  L 768.77 402.71&#10;  Q 769.46 403.62 768.68 404.46&#10;  L 765.55 407.83&#10;  Q 765.24 408.17 764.78 408.25&#10;  Q 762.31 408.65 759.74 407.65&#10;  Q 758.66 407.23 757.64 407.39&#10;  A 0.79 0.79 0.0 0 0 756.97 408.17&#10;  L 756.97 409.73&#10;  Q 756.97 410.51 757.72 410.28&#10;  Q 758.08 410.17 758.35 410.23&#10;  A 0.58 0.57 16.2 0 1 758.77 410.99&#10;  Q 758.14 412.68 756.71 413.71&#10;  Q 756.61 413.78 756.50 413.67&#10;  Q 756.40 413.56 756.53 413.46&#10;  Q 757.37 412.82 757.71 411.80&#10;  Z"/>
<path fill="#9fa69c" fill-opacity="0.306" d="&#10;  M 659.65 395.47&#10;  Q 659.66 394.78 659.48 394.22&#10;  Q 659.74 394.69 659.65 395.47&#10;  Z"/>
<path fill="#ffffff" d="&#10;  M 234.27 406.73&#10;  L 233.79 406.46&#10;  Q 233.71 405.85 232.95 405.33&#10;  Q 230.56 403.70 230.45 400.25&#10;  Q 230.36 397.25 232.47 395.19&#10;  Q 233.46 394.23 234.73 394.41&#10;  Q 236.35 394.63 237.06 395.68&#10;  Q 242.18 403.28 234.27 406.73&#10;  Z"/>
<path fill="#ffffff" d="&#10;  M 481.79 446.95&#10;  Q 481.36 447.85 481.91 448.05&#10;  L 482.01 496.95&#10;  A 0.76 0.43 -78.6 0 1 481.28 497.79&#10;  L 453.10 471.54&#10;  A 2.41 2.41 0.0 0 0 449.76 471.60&#10;  L 405.30 516.06&#10;  A 0.55 0.54 43.0 0 1 404.55 516.08&#10;  Q 402.14 513.91 399.74 511.15&#10;  Q 398.63 509.87 400.01 510.14&#10;  Q 400.46 510.22 400.81 509.49&#10;  Q 400.99 509.10 401.43 508.70&#10;  Q 404.72 505.74 407.77 502.54&#10;  Q 412.29 497.78 413.94 496.18&#10;  Q 424.71 485.72 435.36 475.14&#10;  Q 436.35 474.15 440.87 470.11&#10;  Q 443.97 467.32 445.82 465.18&#10;  Q 446.15 464.80 445.80 464.44&#10;  L 431.53 450.17&#10;  Q 431.16 449.81 431.16 449.29&#10;  L 431.16 397.24&#10;  A 0.36 0.36 0.0 0 1 431.76 396.98&#10;  Q 437.38 402.13 462.38 425.37&#10;  Q 471.25 433.62 479.98 442.02&#10;  Q 481.95 443.92 481.79 446.95&#10;  Z"/>
<path fill="#ffffff" d="&#10;  M 748.57 403.44&#10;  A 1.83 1.83 0.0 0 1 748.76 406.02&#10;  L 748.18 406.70&#10;  A 4.96 2.83 -49.3 0 1 742.80 408.61&#10;  L 738.87 405.23&#10;  A 4.96 2.83 -49.3 0 1 739.96 399.63&#10;  L 740.54 398.95&#10;  A 1.83 1.83 0.0 0 1 743.12 398.76&#10;  L 748.57 403.44&#10;  Z"/>
<path fill="#ffffff" d="&#10;  M 245.50 400.98&#10;  A 1.51 1.51 0.0 0 1 247.62 401.25&#10;  L 248.32 402.15&#10;  A 5.30 4.69 -37.7 0 1 246.99 409.11&#10;  L 246.38 409.58&#10;  A 5.30 4.69 -37.7 0 1 239.31 409.11&#10;  L 238.62 408.21&#10;  A 1.51 1.51 0.0 0 1 238.89 406.09&#10;  L 245.50 400.98&#10;  Z"/>
<path fill="#ffffff" d="&#10;  M 219.15 407.29&#10;  Q 217.89 406.33 218.85 405.07&#10;  L 221.50 401.59&#10;  Q 222.59 400.16 224.02 401.25&#10;  L 230.41 406.13&#10;  Q 230.96 406.55 230.55 407.11&#10;  Q 228.17 410.38 224.00 410.66&#10;  A 1.11 1.11 0.0 0 1 223.28 410.44&#10;  L 219.15 407.29&#10;  Z"/>
<path fill="#9fa69c" fill-opacity="0.306" d="&#10;  M 659.86 409.04&#10;  L 659.78 405.28&#10;  L 659.86 409.04&#10;  Z"/>
<path fill="#95be80" fill-opacity="0.996" d="&#10;  M 234.27 406.73&#10;  Q 234.46 406.96 234.55 407.33&#10;  Q 233.92 407.41 234.02 407.64&#10;  L 233.79 406.46&#10;  L 234.27 406.73&#10;  Z"/>
<path fill="#ffffff" d="&#10;  M 234.55 407.33&#10;  Q 239.40 409.49 237.19 414.95&#10;  A 0.76 0.74 87.0 0 1 236.85 415.34&#10;  L 235.59 416.07&#10;  Q 234.92 416.46 235.44 417.02&#10;  Q 237.43 419.16 238.32 420.66&#10;  C 239.47 422.61 239.01 423.86 238.08 425.88&#10;  C 237.16 427.87 235.80 430.08 233.26 428.31&#10;  Q 230.66 426.50 230.84 422.24&#10;  Q 230.90 420.92 231.83 419.48&#10;  Q 232.90 417.82 233.51 417.00&#10;  A 0.88 0.88 0.0 0 0 233.31 415.75&#10;  L 231.31 414.38&#10;  Q 230.80 414.03 230.70 413.41&#10;  Q 230.09 409.33 234.02 407.64&#10;  Q 233.92 407.41 234.55 407.33&#10;  Z"/>
<path fill="#ffffff" d="&#10;  M 764.63 421.26&#10;  L 758.84 415.90&#10;  Q 757.68 414.82 758.83 413.63&#10;  L 761.11 411.27&#10;  Q 762.96 409.36 765.02 411.04&#10;  L 768.60 413.97&#10;  Q 769.97 415.09 768.74 416.69&#10;  L 765.62 420.72&#10;  Q 764.96 421.57 764.63 421.26&#10;  Z"/>
<path fill="#ffffff" d="&#10;  M 743.03 420.86&#10;  A 1.71 1.71 0.0 0 1 740.62 420.81&#10;  L 739.93 420.09&#10;  A 5.14 4.18 46.4 0 1 739.42 413.48&#10;  L 741.46 411.54&#10;  A 5.14 4.18 46.4 0 1 748.03 412.38&#10;  L 748.71 413.10&#10;  A 1.71 1.71 0.0 0 1 748.65 415.51&#10;  L 743.03 420.86&#10;  Z"/>
<path fill="#a3c894" fill-opacity="0.514" d="&#10;  M 757.71 411.80&#10;  L 757.21 411.40&#10;  L 757.69 411.38&#10;  Q 757.87 411.38 757.80 411.55&#10;  Q 757.75 411.67 757.71 411.80&#10;  Z"/>
<path fill="#9fa69c" fill-opacity="0.306" d="&#10;  M 659.72 412.03&#10;  Q 660.10 412.30 659.78 412.74&#10;  Q 659.55 412.38 659.72 412.03&#10;  Z"/>
<path fill="#ffffff" d="&#10;  M 248.11 421.40&#10;  A 1.88 1.88 0.0 0 1 245.52 421.98&#10;  L 244.71 421.47&#10;  A 8.54 3.86 32.4 0 1 239.57 413.63&#10;  L 239.71 413.41&#10;  A 8.54 3.86 32.4 0 1 248.98 414.73&#10;  L 249.79 415.24&#10;  A 1.88 1.88 0.0 0 1 250.37 417.84&#10;  L 248.11 421.40&#10;  Z"/>
<path fill="#ffffff" d="&#10;  M 223.26 423.26&#10;  A 0.31 0.31 0.0 0 1 222.82 423.24&#10;  L 221.09 421.40&#10;  A 5.06 3.77 46.9 0 1 220.39 415.12&#10;  L 222.65 413.01&#10;  A 5.06 3.77 46.9 0 1 228.86 414.13&#10;  L 230.59 415.97&#10;  A 0.31 0.31 0.0 0 1 230.58 416.41&#10;  L 223.26 423.26&#10;  Z"/>
<path fill="#9fa69c" fill-opacity="0.306" d="&#10;  M 651.26 413.27&#10;  L 651.02 414.97&#10;  L 651.26 413.27&#10;  Z"/>
<path fill="#a3c894" fill-opacity="0.514" d="&#10;  M 343.34 424.85&#10;  Q 343.97 429.58 345.89 438.84&#10;  Q 347.38 446.04 349.37 451.00&#10;  A 0.26 0.25 -14.6 0 1 349.16 451.35&#10;  L 341.98 452.23&#10;  Q 341.71 452.27 341.65 452.00&#10;  L 336.92 432.88&#10;  Q 341.11 433.71 342.07 430.00&#10;  Q 342.70 427.56 343.34 424.85&#10;  Z"/>
<path fill="#bce39f" d="&#10;  M 388.47 431.67&#10;  L 393.85 426.10&#10;  A 0.36 0.36 0.0 0 1 394.36 426.09&#10;  L 414.14 445.21&#10;  A 0.36 0.36 0.0 0 1 414.25 445.47&#10;  L 414.25 456.25&#10;  A 0.36 0.36 0.0 0 1 413.64 456.51&#10;  L 388.48 432.18&#10;  A 0.36 0.36 0.0 0 1 388.47 431.67&#10;  Z"/>
<path fill="#9fa69c" fill-opacity="0.306" d="&#10;  M 658.09 428.94&#10;  Q 658.25 429.53 658.06 430.00&#10;  Q 658.16 429.50 658.09 428.94&#10;  Z"/>
<path fill="#9fa69c" fill-opacity="0.306" d="&#10;  M 726.11 439.65&#10;  L 726.12 431.78&#10;  L 726.11 439.65&#10;  Z"/>
<path fill="#9fa69c" fill-opacity="0.306" d="&#10;  M 787.93 592.82&#10;  L 780.70 592.78&#10;  L 780.70 438.06&#10;  Q 780.70 434.65 783.99 434.56&#10;  Q 784.06 434.56 784.12 434.56&#10;  Q 787.43 434.51 787.44 437.62&#10;  L 787.93 592.82&#10;  Z"/>
<path fill="#9fa69c" fill-opacity="0.306" d="&#10;  M 726.14 442.29&#10;  L 726.11 443.21&#10;  L 726.14 442.29&#10;  Z"/>
<path fill="#a3c894" fill-opacity="0.514" d="&#10;  M 725.92 446.45&#10;  Q 726.09 447.32 725.94 448.29&#10;  Q 725.51 447.09 725.92 446.45&#10;  Z"/>
<path fill="#95be80" fill-opacity="0.996" d="&#10;  M 481.91 448.05&#10;  Q 481.36 447.85 481.79 446.95&#10;  Q 481.95 447.45 481.91 448.05&#10;  Z"/>
<path fill="#bce39f" d="&#10;  M 780.70 592.78&#10;  L 787.93 592.82&#10;  L 817.60 592.74&#10;  A 0.79 0.79 0.0 0 1 818.39 593.53&#10;  L 818.39 602.78&#10;  A 0.66 0.66 0.0 0 1 817.73 603.44&#10;  L 624.22 603.15&#10;  Q 624.73 601.82 627.24 601.91&#10;  Q 629.03 602.17 630.35 601.53&#10;  Q 630.81 601.30 631.02 600.83&#10;  Q 631.60 599.53 632.42 598.37&#10;  Q 633.49 596.84 633.60 595.74&#10;  Q 633.73 594.44 633.78 593.00&#10;  L 636.41 592.71&#10;  Q 637.00 592.65 637.00 592.05&#10;  L 637.00 576.98&#10;  Q 637.00 573.74 640.21 573.26&#10;  L 642.03 572.99&#10;  Q 645.17 572.53 645.17 575.70&#10;  L 645.17 592.27&#10;  A 0.59 0.58 0.0 0 0 645.76 592.85&#10;  L 655.94 592.85&#10;  Q 656.53 592.85 656.54 592.26&#10;  L 656.67 560.39&#10;  Q 656.69 556.40 660.69 555.79&#10;  L 661.03 555.77&#10;  Q 664.87 555.45 664.87 559.30&#10;  L 664.87 592.32&#10;  Q 664.87 592.79 665.33 592.79&#10;  L 676.53 592.79&#10;  Q 677.09 592.79 677.10 592.22&#10;  L 677.43 537.59&#10;  Q 677.46 533.74 681.30 533.54&#10;  Q 681.40 533.53 681.46 533.53&#10;  Q 685.37 533.51 685.37 537.20&#10;  L 685.40 591.79&#10;  A 0.99 0.99 0.0 0 0 686.40 592.78&#10;  L 698.11 592.66&#10;  L 705.37 592.59&#10;  L 717.41 592.69&#10;  Q 717.82 592.69 717.82 592.28&#10;  L 717.85 487.04&#10;  L 720.52 483.02&#10;  A 0.94 0.94 0.0 0 1 721.34 482.60&#10;  L 726.13 482.78&#10;  L 726.20 591.99&#10;  Q 726.21 592.82 727.04 592.82&#10;  L 738.79 592.82&#10;  A 0.60 0.60 0.0 0 0 739.39 592.22&#10;  L 739.39 460.77&#10;  A 0.45 0.44 90.0 0 1 739.83 460.32&#10;  L 747.69 460.28&#10;  A 0.26 0.26 0.0 0 1 747.95 460.54&#10;  L 747.41 592.32&#10;  A 0.51 0.51 0.0 0 0 747.92 592.83&#10;  L 760.00 592.83&#10;  A 0.32 0.32 0.0 0 0 760.32 592.51&#10;  L 760.60 533.74&#10;  Q 760.62 529.43 764.84 529.22&#10;  Q 764.99 529.21 765.01 529.21&#10;  Q 769.33 529.18 769.34 533.25&#10;  L 769.40 592.17&#10;  Q 769.40 592.71 769.95 592.71&#10;  L 780.70 592.78&#10;  Z"/>
<path fill="#95be80" fill-opacity="0.996" d="&#10;  M 500.10 477.55&#10;  L 500.07 476.70&#10;  Q 500.53 477.07 500.10 477.55&#10;  Z"/>
<path fill="#95be80" fill-opacity="0.996" d="&#10;  M 500.10 478.51&#10;  L 500.07 477.69&#10;  Q 500.61 478.13 500.10 478.51&#10;  Z"/>
<ellipse fill="#bce39f" cx="0.00" cy="0.00" transform="translate(393.52,483.62) rotate(92.8)" rx="5.50" ry="5.15"/>
<path fill="#95be80" fill-opacity="0.996" d="&#10;  M 500.10 479.56&#10;  L 500.05 478.70&#10;  Q 500.63 478.99 500.10 479.56&#10;  Z"/>
<circle fill="#ffffff" cx="650.47" cy="486.64" r="6.59"/>
<path fill="#9fa69c" fill-opacity="0.306" d="&#10;  M 294.21 592.70&#10;  L 286.97 592.69&#10;  L 287.58 489.06&#10;  Q 287.60 485.80 290.90 485.74&#10;  Q 291.00 485.74 291.05 485.73&#10;  A 3.30 2.82 85.9 0 1 294.34 489.07&#10;  L 294.21 592.70&#10;  Z"/>
<path fill="#a3c894" fill-opacity="0.514" d="&#10;  M 500.15 509.20&#10;  L 500.13 487.00&#10;  L 500.15 509.20&#10;  Z"/>
<path fill="#95be80" fill-opacity="0.996" d="&#10;  M 464.33 501.22&#10;  Q 464.41 505.68 460.67 508.64&#10;  Q 454.68 502.89 450.14 496.66&#10;  Q 449.72 496.10 450.23 495.61&#10;  L 454.40 491.68&#10;  A 0.74 0.74 0.0 0 1 455.44 491.71&#10;  L 464.33 501.22&#10;  Z"/>
<path fill="#9fa69c" fill-opacity="0.306" d="&#10;  M 705.37 592.59&#10;  L 698.11 592.66&#10;  L 698.25 499.83&#10;  Q 698.26 496.25 701.44 495.84&#10;  Q 701.46 495.83 701.74 495.78&#10;  Q 704.94 495.20 704.95 498.45&#10;  L 705.37 592.59&#10;  Z"/>
<path fill="#a3c894" fill-opacity="0.514" d="&#10;  M 482.28 515.98&#10;  L 477.98 521.91&#10;  Q 468.73 516.13 460.67 508.64&#10;  Q 464.41 505.68 464.33 501.22&#10;  L 482.28 515.98&#10;  Z"/>
<path fill="#9fa69c" fill-opacity="0.306" d="&#10;  M 500.14 509.96&#10;  L 500.14 511.55&#10;  Q 499.93 510.77 500.14 509.96&#10;  Z"/>
<path fill="#a3c894" fill-opacity="0.514" d="&#10;  M 500.18 512.80&#10;  L 500.30 514.81&#10;  L 500.17 522.69&#10;  L 500.18 512.80&#10;  Z"/>
<path fill="#95be80" fill-opacity="0.996" d="&#10;  M 500.26 530.20&#10;  L 500.14 523.33&#10;  L 500.17 522.69&#10;  L 500.30 514.81&#10;  L 500.26 530.20&#10;  Z"/>
<path fill="#9fa69c" fill-opacity="0.306" d="&#10;  M 477.98 521.91&#10;  L 482.28 515.98&#10;  L 489.01 521.14&#10;  Q 489.41 521.44 489.22 521.91&#10;  L 487.62 525.92&#10;  Q 487.44 526.38 486.98 526.20&#10;  Q 486.75 526.11 485.90 526.13&#10;  Q 485.39 526.15 484.94 525.89&#10;  L 477.98 521.91&#10;  Z"/>
<path fill="#bce39f" d="&#10;  M 536.80 581.62&#10;  L 529.50 583.22&#10;  A 0.54 0.54 0.0 0 1 528.84 582.69&#10;  L 528.84 530.83&#10;  A 0.54 0.54 0.0 0 1 529.00 530.45&#10;  L 536.30 523.15&#10;  A 0.54 0.54 0.0 0 1 537.22 523.53&#10;  L 537.22 581.10&#10;  A 0.54 0.54 0.0 0 1 536.80 581.62&#10;  Z"/>
<path fill="#a3c894" fill-opacity="0.514" d="&#10;  M 500.26 530.20&#10;  L 500.13 531.24&#10;  L 500.14 523.33&#10;  L 500.26 530.20&#10;  Z"/>
<ellipse fill="#95be80" fill-opacity="0.996" cx="0.00" cy="0.00" transform="translate(438.24,531.01) rotate(106.8)" rx="5.45" ry="5.14"/>
<path fill="#ffffff" d="&#10;  M 436.51 566.35&#10;  L 435.16 574.50&#10;  A 0.13 0.13 0.0 0 1 434.98 574.60&#10;  Q 417.42 566.71 400.50 555.60&#10;  Q 383.51 544.45 371.86 531.59&#10;  A 0.74 0.73 -34.8 0 1 372.07 530.45&#10;  Q 375.31 528.76 377.44 526.01&#10;  A 0.69 0.69 0.0 0 1 378.48 525.95&#10;  Q 388.97 536.74 399.39 544.03&#10;  Q 411.77 552.69 419.88 557.03&#10;  Q 430.67 562.80 436.34 566.00&#10;  A 0.34 0.33 20.2 0 1 436.51 566.35&#10;  Z"/>
<path fill="#a3c894" fill-opacity="0.514" d="&#10;  M 335.22 592.75&#10;  L 327.17 592.76&#10;  L 327.38 558.89&#10;  Q 327.41 554.84 331.30 555.14&#10;  Q 331.37 555.15 331.45 555.15&#10;  Q 335.19 554.93 335.19 558.90&#10;  L 335.22 592.75&#10;  Z"/>
<path fill="#a3c894" fill-opacity="0.514" d="&#10;  M 355.68 592.73&#10;  Q 355.38 592.64 354.77 592.74&#10;  L 347.33 592.76&#10;  Q 347.32 584.85 347.17 577.00&#10;  Q 347.09 573.05 350.51 571.93&#10;  Q 350.99 571.77 351.45 571.97&#10;  Q 355.74 573.79 355.60 578.99&#10;  Q 355.48 583.67 355.68 592.73&#10;  Z"/>
<path fill="#95be80" fill-opacity="0.996" d="&#10;  M 355.68 592.73&#10;  L 363.73 593.50&#10;  L 373.45 602.29&#10;  Q 370.29 602.50 367.13 602.01&#10;  Q 366.92 601.97 366.87 601.86&#10;  Q 366.82 601.74 366.90 601.59&#10;  Q 366.95 601.50 367.05 601.50&#10;  Q 368.41 601.46 368.62 601.39&#10;  Q 371.58 600.52 368.54 600.07&#10;  Q 366.85 599.81 364.44 598.08&#10;  Q 359.89 594.81 354.77 592.74&#10;  Q 355.38 592.64 355.68 592.73&#10;  Z"/>
<path fill="#a3c894" fill-opacity="0.514" d="&#10;  M 629.76 593.21&#10;  L 632.85 594.46&#10;  A 0.13 0.13 0.0 0 1 632.90 594.66&#10;  L 632.65 594.99&#10;  A 0.03 0.02 38.0 0 0 632.66 595.03&#10;  Q 632.83 595.13 632.89 595.05&#10;  A 0.17 0.09 -82.0 0 1 632.98 595.31&#10;  Q 631.12 598.35 629.65 601.60&#10;  Q 629.65 601.61 629.63 601.62&#10;  L 629.37 601.67&#10;  Q 629.13 601.72 629.22 601.50&#10;  L 631.71 595.29&#10;  Q 631.71 595.27 631.72 595.27&#10;  Q 631.84 595.26 631.97 595.24&#10;  Q 632.62 595.16 631.99 595.11&#10;  Q 631.85 595.10 631.71 595.18&#10;  Q 631.54 595.27 631.35 595.25&#10;  Q 629.68 595.06 629.32 596.38&#10;  Q 629.20 596.84 628.82 597.13&#10;  L 626.11 599.17&#10;  Q 625.72 599.46 625.98 599.88&#10;  L 627.24 601.91&#10;  Q 624.73 601.82 624.22 603.15&#10;  L 619.14 602.92&#10;  Q 618.55 599.89 620.44 598.70&#10;  Q 620.58 598.61 620.43 598.67&#10;  Q 620.30 598.72 620.19 598.79&#10;  Q 618.39 599.90 618.18 600.03&#10;  Q 617.65 600.34 617.84 599.82&#10;  Q 619.00 596.60 621.99 595.67&#10;  Q 622.50 595.51 622.44 594.98&#10;  Q 622.37 594.31 621.73 593.75&#10;  Q 625.51 592.64 629.76 593.21&#10;  Z&#10;  M 628.00 596.53&#10;  Q 627.86 596.74 627.71 596.94&#10;  Q 627.86 596.74 628.00 596.53&#10;  Q 628.11 596.44 628.22 596.35&#10;  Q 628.23 596.35 628.22 596.35&#10;  Q 628.11 596.44 628.00 596.53&#10;  Z"/>
<path fill="#95be80" fill-opacity="0.996" d="&#10;  M 633.78 593.00&#10;  Q 633.73 594.44 633.60 595.74&#10;  Q 633.49 596.84 632.42 598.37&#10;  Q 631.60 599.53 631.02 600.83&#10;  Q 630.81 601.30 630.35 601.53&#10;  Q 629.03 602.17 627.24 601.91&#10;  L 625.98 599.88&#10;  Q 625.72 599.46 626.11 599.17&#10;  L 628.82 597.13&#10;  Q 629.20 596.84 629.32 596.38&#10;  Q 629.68 595.06 631.35 595.25&#10;  Q 631.54 595.27 631.71 595.18&#10;  Q 631.85 595.10 631.99 595.11&#10;  Q 632.62 595.16 631.97 595.24&#10;  Q 631.84 595.26 631.72 595.27&#10;  Q 631.71 595.27 631.71 595.29&#10;  L 629.22 601.50&#10;  Q 629.13 601.72 629.37 601.67&#10;  L 629.63 601.62&#10;  Q 629.65 601.61 629.65 601.60&#10;  Q 631.12 598.35 632.98 595.31&#10;  A 0.17 0.09 -82.0 0 0 632.89 595.05&#10;  Q 632.83 595.13 632.66 595.03&#10;  A 0.03 0.02 38.0 0 1 632.65 594.99&#10;  L 632.90 594.66&#10;  A 0.13 0.13 0.0 0 0 632.85 594.46&#10;  L 629.76 593.21&#10;  L 633.78 593.00&#10;  Z"/>
<path fill="#a3c894" fill-opacity="0.514" d="&#10;  M 366.91 593.88&#10;  Q 371.01 595.80 373.21 599.51&#10;  Q 373.51 600.02 374.10 600.02&#10;  L 377.05 600.02&#10;  Q 377.41 600.02 377.59 600.32&#10;  L 377.86 600.77&#10;  Q 377.98 600.96 377.76 600.97&#10;  L 374.47 601.15&#10;  Q 373.10 601.22 374.35 601.88&#10;  Q 374.41 601.91 375.03 602.11&#10;  Q 375.64 602.31 375.01 603.26&#10;  L 373.46 603.45&#10;  Q 373.78 602.72 373.45 602.29&#10;  L 363.73 593.50&#10;  Q 365.40 593.25 366.91 593.88&#10;  Z"/>
<path fill="#9fa69c" fill-opacity="0.306" d="&#10;  M 375.01 603.26&#10;  Q 375.64 602.31 375.03 602.11&#10;  Q 374.41 601.91 374.35 601.88&#10;  Q 373.10 601.22 374.47 601.15&#10;  L 377.76 600.97&#10;  Q 377.98 600.96 377.86 600.77&#10;  L 377.59 600.32&#10;  Q 377.41 600.02 377.05 600.02&#10;  L 374.10 600.02&#10;  Q 373.51 600.02 373.21 599.51&#10;  Q 371.01 595.80 366.91 593.88&#10;  Q 368.90 593.78 370.80 594.16&#10;  C 373.32 594.67 375.96 594.60 377.59 597.01&#10;  Q 378.03 597.67 378.95 598.45&#10;  A 0.37 0.36 -40.6 0 1 378.90 599.05&#10;  L 378.55 599.25&#10;  Q 378.12 599.50 378.58 599.69&#10;  Q 379.39 600.04 380.54 599.86&#10;  A 0.97 0.97 0.0 0 1 381.38 600.13&#10;  Q 381.77 600.51 381.88 600.65&#10;  Q 382.03 600.83 382.65 601.07&#10;  Q 384.23 601.69 384.80 601.82&#10;  Q 387.17 602.37 384.76 602.69&#10;  Q 379.80 603.36 375.01 603.26&#10;  Z"/>
<path fill="#9fa69c" fill-opacity="0.306" d="&#10;  M 621.73 593.75&#10;  Q 622.37 594.31 622.44 594.98&#10;  Q 622.50 595.51 621.99 595.67&#10;  Q 619.00 596.60 617.84 599.82&#10;  Q 617.65 600.34 618.18 600.03&#10;  Q 618.39 599.90 620.19 598.79&#10;  Q 620.30 598.72 620.43 598.67&#10;  Q 620.58 598.61 620.44 598.70&#10;  Q 618.55 599.89 619.14 602.92&#10;  Q 614.57 603.24 610.32 602.09&#10;  Q 609.84 601.96 610.27 601.72&#10;  L 616.14 598.41&#10;  A 1.16 0.24 -67.1 0 0 616.61 597.73&#10;  Q 616.69 597.57 616.62 597.43&#10;  Q 616.38 596.94 617.02 596.84&#10;  Q 618.34 596.63 619.44 595.86&#10;  Q 619.85 595.58 619.92 595.09&#10;  Q 620.12 593.70 621.73 593.75&#10;  Z"/>
<path fill="#95be80" fill-opacity="0.996" d="&#10;  M 628.00 596.53&#10;  Q 628.11 596.44 628.22 596.35&#10;  Q 628.23 596.35 628.22 596.35&#10;  Q 628.11 596.44 628.00 596.53&#10;  Z"/>
<path fill="#95be80" fill-opacity="0.996" d="&#10;  M 628.00 596.53&#10;  Q 627.86 596.74 627.71 596.94&#10;  Q 627.86 596.74 628.00 596.53&#10;  Z"/>
<path fill="#ffffff" d="&#10;  M 246.49 696.88&#10;  Q 239.34 694.14 234.19 692.33&#10;  Q 226.31 689.56 219.41 685.45&#10;  Q 216.72 683.84 214.13 681.36&#10;  Q 206.73 674.29 205.69 666.60&#10;  C 205.25 663.33 205.34 657.35 206.70 654.00&#10;  Q 210.31 645.12 219.23 640.24&#10;  Q 225.48 636.81 232.76 635.30&#10;  C 235.69 634.69 238.73 634.95 241.86 634.55&#10;  Q 245.62 634.05 248.65 634.57&#10;  Q 250.47 634.88 253.22 634.87&#10;  Q 254.96 634.87 257.76 635.43&#10;  Q 263.59 636.61 269.95 640.33&#10;  Q 274.24 642.84 277.05 646.18&#10;  Q 283.89 654.29 283.99 664.62&#10;  Q 284.00 665.15 283.47 665.15&#10;  L 256.78 665.15&#10;  Q 256.36 665.15 256.34 664.73&#10;  Q 255.81 654.58 246.25 653.15&#10;  Q 239.91 652.21 235.53 656.46&#10;  C 231.48 660.38 232.44 666.08 236.84 669.23&#10;  Q 239.37 671.04 243.05 672.70&#10;  Q 246.27 674.15 259.37 678.63&#10;  Q 263.32 679.98 270.00 684.19&#10;  Q 275.72 687.80 278.64 691.84&#10;  Q 285.14 700.82 283.86 711.95&#10;  Q 283.09 718.62 279.19 723.78&#10;  Q 275.21 729.06 268.78 732.03&#10;  Q 267.53 732.62 263.79 733.97&#10;  Q 261.17 734.91 258.64 735.25&#10;  Q 245.43 736.98 232.19 735.07&#10;  Q 230.14 734.78 222.47 732.01&#10;  Q 217.72 730.30 212.19 725.54&#10;  Q 206.74 720.85 204.01 713.40&#10;  C 202.85 710.22 202.92 706.84 202.29 703.38&#10;  A 0.45 0.45 0.0 0 1 202.73 702.85&#10;  L 229.50 702.85&#10;  A 0.93 0.92 -88.2 0 1 230.42 703.84&#10;  Q 229.86 712.62 237.39 716.40&#10;  Q 238.59 717.01 245.00 717.88&#10;  C 246.77 718.12 248.61 717.40 249.85 717.03&#10;  Q 256.75 714.96 256.25 707.25&#10;  C 255.93 702.30 253.04 700.51 249.10 698.21&#10;  Q 247.43 697.24 246.49 696.88&#10;  Z"/>
<path fill="#ffffff" d="&#10;  M 382.64 636.24&#10;  L 349.62 679.52&#10;  A 0.32 0.32 0.0 0 0 349.60 679.88&#10;  L 382.65 734.34&#10;  A 0.32 0.32 0.0 0 1 382.37 734.83&#10;  L 351.08 734.83&#10;  A 0.32 0.32 0.0 0 1 350.81 734.67&#10;  L 331.42 701.08&#10;  A 0.32 0.32 0.0 0 0 330.91 701.02&#10;  L 323.93 708.55&#10;  A 0.32 0.32 0.0 0 0 323.84 708.77&#10;  L 323.84 734.51&#10;  A 0.32 0.32 0.0 0 1 323.52 734.83&#10;  L 296.49 734.83&#10;  A 0.32 0.32 0.0 0 1 296.17 734.51&#10;  L 296.17 636.06&#10;  A 0.32 0.32 0.0 0 1 296.49 635.74&#10;  L 323.52 635.74&#10;  A 0.32 0.32 0.0 0 1 323.84 636.06&#10;  L 323.84 672.39&#10;  A 0.32 0.32 0.0 0 0 324.42 672.57&#10;  L 349.56 635.87&#10;  A 0.32 0.32 0.0 0 1 349.83 635.73&#10;  L 382.38 635.73&#10;  A 0.32 0.32 0.0 0 1 382.64 636.24&#10;  Z"/>
<path fill="#ffffff" d="&#10;  M 495.66 727.29&#10;  L 495.66 727.96&#10;  Q 495.66 728.12 495.66 728.27&#10;  L 495.66 728.96&#10;  Q 495.66 729.10 495.66 729.23&#10;  L 495.66 729.97&#10;  Q 495.66 730.09 495.66 730.22&#10;  L 495.65 730.97&#10;  Q 495.65 731.11 495.65 731.25&#10;  L 495.65 731.96&#10;  Q 495.65 732.12 495.65 732.29&#10;  L 495.64 732.96&#10;  L 495.62 734.27&#10;  Q 495.62 734.83 495.06 734.83&#10;  L 468.30 734.83&#10;  A 0.28 0.28 0.0 0 1 468.02 734.55&#10;  L 468.02 654.95&#10;  Q 468.02 654.38 467.44 654.38&#10;  L 439.48 654.38&#10;  A 0.64 0.63 -90.0 0 1 438.85 653.74&#10;  L 438.85 636.02&#10;  A 0.30 0.30 0.0 0 1 439.15 635.72&#10;  L 524.65 635.72&#10;  A 0.48 0.47 -90.0 0 1 525.12 636.20&#10;  L 525.12 653.93&#10;  A 0.57 0.56 90.0 0 1 524.56 654.50&#10;  L 496.35 654.50&#10;  Q 495.86 654.50 495.85 654.99&#10;  L 495.66 727.29&#10;  Z"/>
<path fill="#ffffff" d="&#10;  M 646.67 731.67&#10;  Q 642.93 734.72 638.26 735.44&#10;  Q 629.30 736.81 620.88 735.24&#10;  Q 619.47 734.98 614.82 732.23&#10;  Q 605.60 726.78 604.23 716.63&#10;  Q 603.23 709.24 606.65 702.89&#10;  Q 610.19 696.30 617.99 693.26&#10;  Q 623.37 691.15 629.76 690.21&#10;  Q 632.90 689.75 645.01 689.79&#10;  Q 645.51 689.79 645.54 689.29&#10;  C 645.70 686.59 645.54 680.13 643.02 678.09&#10;  C 640.23 675.83 637.14 675.42 634.48 678.17&#10;  Q 632.46 680.25 632.64 683.54&#10;  A 0.38 0.38 0.0 0 1 632.26 683.94&#10;  L 606.27 683.94&#10;  Q 605.77 683.94 605.80 683.44&#10;  Q 606.35 672.16 615.65 666.16&#10;  C 617.32 665.09 620.40 663.07 622.57 662.61&#10;  C 624.99 662.09 626.87 661.04 629.25 660.68&#10;  Q 640.35 659.01 650.50 660.76&#10;  Q 654.50 661.44 659.02 663.75&#10;  Q 667.65 668.17 670.60 676.07&#10;  Q 672.16 680.25 672.18 690.59&#10;  Q 672.19 697.07 672.14 717.26&#10;  Q 672.14 720.48 673.76 728.89&#10;  C 674.14 730.89 675.06 732.23 675.67 733.95&#10;  A 0.66 0.65 79.9 0 1 675.06 734.83&#10;  L 649.26 734.83&#10;  Q 648.78 734.83 648.62 734.38&#10;  L 647.77 731.97&#10;  A 0.70 0.69 -29.5 0 0 646.67 731.67&#10;  Z&#10;  M 645.48 713.70&#10;  A 0.81 0.76 -32.0 0 0 645.58 713.32&#10;  L 645.58 702.55&#10;  A 0.52 0.52 0.0 0 0 645.10 702.03&#10;  Q 642.08 701.80 637.73 702.93&#10;  C 632.33 704.32 630.53 708.58 630.90 713.78&#10;  Q 631.13 717.15 635.02 719.08&#10;  Q 636.23 719.68 637.50 719.44&#10;  Q 642.79 718.44 645.48 713.70&#10;  Z"/>
<path fill="#ffffff" d="&#10;  M 553.25 706.02&#10;  Q 553.41 707.91 554.52 709.99&#10;  Q 558.05 716.59 564.57 717.77&#10;  Q 569.24 718.61 573.80 716.90&#10;  Q 578.16 715.25 581.51 711.38&#10;  A 0.78 0.78 0.0 0 1 582.68 711.37&#10;  L 583.59 712.42&#10;  Q 583.91 712.78 584.24 712.43&#10;  L 585.25 711.34&#10;  A 0.61 0.60 45.6 0 1 586.15 711.36&#10;  L 596.26 722.87&#10;  A 0.61 0.61 0.0 0 1 596.15 723.77&#10;  C 594.79 724.73 594.11 726.24 592.65 727.44&#10;  Q 583.50 734.97 571.25 735.95&#10;  Q 567.13 736.28 558.01 735.77&#10;  Q 548.94 735.27 540.80 729.72&#10;  Q 528.25 721.16 526.26 706.09&#10;  Q 524.37 691.77 529.04 680.05&#10;  Q 533.44 669.00 544.41 663.60&#10;  Q 546.56 662.54 547.82 662.26&#10;  C 549.64 661.85 550.62 661.06 552.53 660.79&#10;  Q 563.47 659.24 571.05 660.39&#10;  Q 586.03 662.65 593.34 674.97&#10;  Q 596.98 681.10 597.97 689.73&#10;  Q 598.85 697.44 598.33 704.91&#10;  Q 598.29 705.43 597.76 705.43&#10;  L 553.79 705.43&#10;  Q 553.20 705.43 553.25 706.02&#10;  Z&#10;  M 553.63 690.94&#10;  L 572.21 691.04&#10;  A 0.22 0.22 0.0 0 0 572.43 690.82&#10;  L 572.43 690.42&#10;  A 12.36 9.36 -89.7 0 0 563.13 678.01&#10;  L 562.83 678.01&#10;  A 12.36 9.36 -89.7 0 0 553.41 690.32&#10;  L 553.41 690.72&#10;  A 0.22 0.22 0.0 0 0 553.63 690.94&#10;  Z"/>
<path fill="#ffffff" d="&#10;  M 686.04 661.11&#10;  L 686.96 661.10&#10;  L 689.44 661.10&#10;  Q 689.93 661.66 690.30 661.08&#10;  L 691.44 661.10&#10;  Q 691.88 661.72 692.31 661.08&#10;  L 693.44 661.10&#10;  Q 693.89 661.69 694.31 661.08&#10;  L 695.44 661.10&#10;  Q 695.90 661.72 696.31 661.08&#10;  Q 696.38 661.09 696.44 661.10&#10;  Q 696.90 661.68 697.31 661.08&#10;  Q 697.38 661.09 697.46 661.10&#10;  Q 697.80 661.32 698.29 661.18&#10;  Q 698.70 661.23 699.04 661.07&#10;  Q 699.13 661.08 699.23 661.10&#10;  L 705.02 661.10&#10;  Q 705.12 661.09 705.21 661.09&#10;  Q 705.63 661.17 706.04 661.09&#10;  L 706.45 661.23&#10;  Q 707.42 661.46 707.55 661.08&#10;  L 707.95 661.11&#10;  Q 708.56 661.51 708.80 661.07&#10;  L 709.89 661.09&#10;  Q 710.49 661.10 710.49 661.70&#10;  L 710.49 665.50&#10;  A 0.44 0.44 0.0 0 0 711.22 665.84&#10;  Q 717.66 660.51 726.26 660.03&#10;  Q 733.66 659.62 737.94 660.56&#10;  Q 745.07 662.11 748.92 667.78&#10;  A 0.45 0.45 0.0 0 0 749.62 667.83&#10;  Q 754.64 662.26 762.52 660.50&#10;  Q 765.63 659.81 772.43 659.94&#10;  Q 778.24 660.05 782.06 661.70&#10;  Q 790.74 665.43 793.54 674.94&#10;  Q 795.16 680.48 795.17 687.38&#10;  Q 795.17 690.99 795.16 734.35&#10;  Q 795.15 734.83 794.67 734.83&#10;  L 769.26 734.83&#10;  Q 768.69 734.83 768.69 734.27&#10;  Q 768.64 713.64 768.68 688.33&#10;  Q 768.68 685.85 767.65 682.51&#10;  Q 766.58 679.08 763.78 678.30&#10;  Q 761.01 677.53 758.55 678.79&#10;  Q 755.54 680.32 753.75 683.08&#10;  Q 753.47 683.51 753.47 684.02&#10;  L 753.47 734.30&#10;  Q 753.47 734.83 752.94 734.83&#10;  L 727.25 734.83&#10;  Q 726.69 734.83 726.69 734.27&#10;  Q 726.57 717.73 726.67 689.01&#10;  C 726.68 685.63 726.55 681.71 724.11 679.38&#10;  Q 723.15 678.47 721.63 678.15&#10;  C 718.36 677.47 714.74 679.48 712.70 682.15&#10;  Q 711.93 683.17 711.93 685.52&#10;  Q 711.93 690.25 711.93 734.32&#10;  Q 711.93 734.83 711.42 734.83&#10;  L 685.57 734.83&#10;  Q 685.05 734.83 685.05 734.31&#10;  L 685.05 661.73&#10;  Q 685.05 661.19 685.59 661.15&#10;  L 686.04 661.11&#10;  Z"/>
<path fill="#a3c894" fill-opacity="0.514" d="&#10;  M 686.96 661.10&#10;  L 686.04 661.11&#10;  L 686.96 661.10&#10;  Z"/>
<path fill="#95be80" fill-opacity="0.996" d="&#10;  M 690.30 661.08&#10;  Q 689.93 661.66 689.44 661.10&#10;  L 690.30 661.08&#10;  Z"/>
<path fill="#95be80" fill-opacity="0.996" d="&#10;  M 692.31 661.08&#10;  Q 691.88 661.72 691.44 661.10&#10;  L 692.31 661.08&#10;  Z"/>
<path fill="#95be80" fill-opacity="0.996" d="&#10;  M 694.31 661.08&#10;  Q 693.89 661.69 693.44 661.10&#10;  L 694.31 661.08&#10;  Z"/>
<path fill="#95be80" fill-opacity="0.996" d="&#10;  M 696.31 661.08&#10;  Q 695.90 661.72 695.44 661.10&#10;  L 696.31 661.08&#10;  Z"/>
<path fill="#95be80" fill-opacity="0.996" d="&#10;  M 697.31 661.08&#10;  Q 696.90 661.68 696.44 661.10&#10;  L 697.31 661.08&#10;  Z"/>
<path fill="#95be80" fill-opacity="0.996" d="&#10;  M 698.21 661.09&#10;  Q 698.25 661.13 698.29 661.18&#10;  Q 697.80 661.32 697.46 661.10&#10;  L 698.21 661.09&#10;  Z"/>
<path fill="#a3c894" fill-opacity="0.514" d="&#10;  M 699.04 661.07&#10;  Q 698.70 661.23 698.29 661.18&#10;  Q 698.25 661.13 698.21 661.09&#10;  L 699.04 661.07&#10;  Z"/>
<path fill="#a3c894" fill-opacity="0.514" d="&#10;  M 705.02 661.10&#10;  L 699.23 661.10&#10;  L 705.02 661.10&#10;  Z"/>
<path fill="#a3c894" fill-opacity="0.514" d="&#10;  M 706.04 661.09&#10;  Q 705.63 661.17 705.21 661.09&#10;  L 706.04 661.09&#10;  Z"/>
<path fill="#95be80" fill-opacity="0.996" d="&#10;  M 707.55 661.08&#10;  Q 707.42 661.46 706.45 661.23&#10;  Q 706.57 660.92 707.55 661.08&#10;  Z"/>
<path fill="#95be80" fill-opacity="0.996" d="&#10;  M 708.80 661.07&#10;  Q 708.56 661.51 707.95 661.11&#10;  L 708.80 661.07&#10;  Z"/>
<rect fill="#ffffff" x="380.62" y="683.27" width="44.40" height="18.00" rx="0.32"/>
<path fill="#a3c894" fill-opacity="0.514" d="&#10;  M 495.66 727.29&#10;  Q 495.71 727.62 495.66 727.96&#10;  L 495.66 727.29&#10;  Z"/>
<path fill="#a3c894" fill-opacity="0.514" d="&#10;  M 495.66 728.27&#10;  L 495.66 728.96&#10;  L 495.66 728.27&#10;  Z"/>
<path fill="#a3c894" fill-opacity="0.514" d="&#10;  M 495.66 729.23&#10;  L 495.66 729.97&#10;  L 495.66 729.23&#10;  Z"/>
<path fill="#a3c894" fill-opacity="0.514" d="&#10;  M 495.66 730.22&#10;  Q 495.72 730.59 495.65 730.97&#10;  L 495.66 730.22&#10;  Z"/>
<path fill="#a3c894" fill-opacity="0.514" d="&#10;  M 495.65 731.25&#10;  Q 495.72 731.61 495.65 731.96&#10;  L 495.65 731.25&#10;  Z"/>
<path fill="#a3c894" fill-opacity="0.514" d="&#10;  M 495.65 732.29&#10;  Q 495.72 732.63 495.64 732.96&#10;  L 495.65 732.29&#10;  Z"/>
<path fill="#ffffff" d="&#10;  M 650.13 782.80&#10;  Q 650.53 783.49 650.94 782.80&#10;  L 654.39 776.79&#10;  A 1.86 1.86 0.0 0 1 656.00 775.87&#10;  L 659.28 775.86&#10;  Q 660.20 775.86 659.74 776.66&#10;  L 653.42 787.63&#10;  A 3.92 3.89 -30.2 0 0 652.89 789.60&#10;  L 652.90 796.52&#10;  Q 652.90 797.09 652.34 797.09&#10;  L 649.08 797.09&#10;  Q 648.68 797.09 648.68 796.68&#10;  Q 648.76 793.06 648.72 791.44&#10;  Q 648.67 789.19 647.65 787.60&#10;  Q 644.93 783.37 641.17 776.39&#10;  A 0.23 0.23 0.0 0 1 641.37 776.04&#10;  L 645.99 776.04&#10;  A 0.41 0.41 0.0 0 1 646.34 776.24&#10;  L 650.13 782.80&#10;  Z"/>
<rect fill="#ffffff" x="-2.31" y="-10.63" transform="translate(603.65,786.96) rotate(-0.3)" width="4.62" height="21.26" rx="0.81"/>
<path fill="#ffffff" d="&#10;  M 623.52 776.27&#10;  Q 629.21 776.23 631.52 776.20&#10;  Q 632.23 776.19 632.23 776.91&#10;  L 632.25 780.01&#10;  A 0.51 0.51 0.0 0 1 631.74 780.52&#10;  L 626.45 780.55&#10;  Q 625.83 780.56 625.83 781.18&#10;  L 625.92 796.53&#10;  Q 625.92 797.12 625.36 797.28&#10;  Q 624.68 797.47 623.72 797.48&#10;  Q 622.76 797.49 622.08 797.31&#10;  Q 621.52 797.16 621.51 796.57&#10;  L 621.30 781.22&#10;  Q 621.29 780.60 620.67 780.61&#10;  L 615.38 780.68&#10;  A 0.51 0.51 0.0 0 1 614.86 780.18&#10;  L 614.82 777.08&#10;  Q 614.81 776.36 615.52 776.35&#10;  Q 617.83 776.34 623.52 776.27&#10;  Z"/>
<path fill="#ffffff" d="&#10;  M 580.27 791.69&#10;  L 580.27 797.52&#10;  A 0.59 0.59 0.0 0 1 579.68 798.11&#10;  L 576.29 798.11&#10;  Q 575.72 798.11 575.72 797.54&#10;  L 575.72 777.30&#10;  Q 575.72 776.83 576.19 776.78&#10;  Q 578.45 776.58 584.36 776.58&#10;  Q 587.21 776.58 588.72 778.10&#10;  Q 591.95 781.35 590.91 785.98&#10;  Q 590.36 788.40 588.35 789.98&#10;  Q 587.96 790.29 588.16 790.71&#10;  L 591.39 797.30&#10;  Q 591.72 797.97 590.98 797.97&#10;  L 587.25 797.97&#10;  A 1.18 1.18 0.0 0 1 586.17 797.26&#10;  Q 585.02 794.65 583.63 791.86&#10;  Q 583.09 790.78 580.86 791.03&#10;  Q 580.27 791.09 580.27 791.69&#10;  Z&#10;  M 580.20 781.22&#10;  L 580.20 786.38&#10;  A 0.58 0.58 0.0 0 0 580.79 786.95&#10;  L 583.75 786.95&#10;  A 2.96 2.82 89.9 0 0 586.56 783.98&#10;  L 586.56 783.58&#10;  A 2.96 2.82 89.9 0 0 583.73 780.63&#10;  L 580.77 780.63&#10;  A 0.58 0.58 0.0 0 0 580.20 781.22&#10;  Z"/>
<path fill="#ffffff" d="&#10;  M 557.74 798.43&#10;  C 555.48 798.45 552.52 796.55 551.29 795.03&#10;  Q 550.00 793.43 550.04 789.17&#10;  Q 550.08 783.26 550.00 777.67&#10;  Q 549.99 776.97 550.69 776.97&#10;  L 553.52 776.95&#10;  Q 554.09 776.95 554.11 777.52&#10;  Q 554.33 785.41 554.26 788.00&#10;  Q 554.10 793.89 557.70 793.85&#10;  Q 561.29 793.82 561.02 787.93&#10;  Q 560.90 785.35 560.96 777.45&#10;  Q 560.97 776.88 561.54 776.87&#10;  L 564.37 776.84&#10;  Q 565.07 776.82 565.07 777.52&#10;  Q 565.10 783.11 565.26 789.02&#10;  Q 565.38 793.28 564.12 794.90&#10;  C 562.93 796.45 560.00 798.41 557.74 798.43&#10;  Z"/>
<path fill="#ffffff" d="&#10;  M 530.55 787.69&#10;  Q 530.54 790.76 530.54 791.53&#10;  A 2.46 2.45 89.3 0 0 533.05 793.99&#10;  Q 534.77 793.95 535.62 792.76&#10;  Q 536.35 791.75 537.50 792.21&#10;  L 539.72 793.10&#10;  A 1.13 1.13 0.0 0 1 540.18 794.87&#10;  Q 534.69 801.63 527.89 796.16&#10;  Q 526.70 795.20 526.33 792.74&#10;  Q 526.11 791.26 526.12 787.67&#10;  Q 526.13 784.08 526.36 782.61&#10;  Q 526.75 780.15 527.94 779.20&#10;  Q 534.77 773.77 540.22 780.56&#10;  A 1.13 1.13 0.0 0 1 539.75 782.33&#10;  L 537.53 783.21&#10;  Q 536.37 783.66 535.65 782.65&#10;  Q 534.81 781.45 533.09 781.40&#10;  A 2.46 2.45 -89.0 0 0 530.56 783.84&#10;  Q 530.56 784.62 530.55 787.69&#10;  Z"/>
<path fill="#ffffff" d="&#10;  M 482.46 782.71&#10;  L 482.32 782.97&#10;  Q 481.33 784.67 483.16 785.39&#10;  C 485.73 786.41 489.18 786.74 490.78 789.04&#10;  C 493.19 792.49 492.78 795.98 488.72 798.01&#10;  Q 482.96 800.89 478.04 796.35&#10;  Q 477.05 795.43 478.03 794.51&#10;  L 478.94 793.65&#10;  Q 479.89 792.75 480.98 793.48&#10;  Q 482.57 794.54 485.29 794.44&#10;  Q 486.28 794.40 486.79 793.95&#10;  Q 487.80 793.04 487.71 792.51&#10;  A 2.40 2.32 -2.9 0 0 485.53 790.60&#10;  Q 481.83 790.34 479.48 787.73&#10;  Q 477.66 785.70 477.79 783.49&#10;  Q 477.98 780.46 480.01 778.99&#10;  Q 484.80 775.54 490.52 779.41&#10;  A 1.41 1.40 -63.6 0 1 491.06 781.03&#10;  Q 490.70 782.08 489.47 782.96&#10;  Q 488.61 783.59 487.74 782.96&#10;  Q 486.47 782.05 484.67 781.70&#10;  A 2.10 2.10 0.0 0 0 482.46 782.71&#10;  Z"/>
<path fill="#ffffff" d="&#10;  M 516.74 794.62&#10;  L 516.74 798.17&#10;  A 0.57 0.57 0.0 0 1 516.17 798.74&#10;  L 502.60 798.74&#10;  A 0.57 0.57 0.0 0 1 502.03 798.17&#10;  L 502.03 777.81&#10;  A 0.57 0.57 0.0 0 1 502.60 777.24&#10;  L 515.98 777.24&#10;  A 0.57 0.57 0.0 0 1 516.55 777.81&#10;  L 516.55 781.09&#10;  A 0.57 0.57 0.0 0 1 515.98 781.66&#10;  L 507.17 781.66&#10;  A 0.57 0.57 0.0 0 0 506.60 782.23&#10;  L 506.60 785.06&#10;  A 0.57 0.57 0.0 0 0 507.17 785.63&#10;  L 513.50 785.63&#10;  A 0.57 0.57 0.0 0 1 514.07 786.20&#10;  L 514.07 789.57&#10;  A 0.57 0.57 0.0 0 1 513.50 790.14&#10;  L 506.73 790.14&#10;  A 0.57 0.57 0.0 0 0 506.16 790.71&#10;  L 506.16 793.48&#10;  A 0.57 0.57 0.0 0 0 506.73 794.05&#10;  L 516.17 794.05&#10;  A 0.57 0.57 0.0 0 1 516.74 794.62&#10;  Z"/>
<path fill="#ffffff" d="&#10;  M 436.84 791.99&#10;  Q 436.95 792.46 436.75 792.81&#10;  L 439.81 798.32&#10;  Q 440.30 799.22 439.28 799.22&#10;  L 436.15 799.22&#10;  Q 435.30 799.22 434.87 798.48&#10;  L 431.70 792.99&#10;  Q 431.38 792.43 430.74 792.43&#10;  L 428.81 792.43&#10;  Q 428.35 792.43 428.35 792.89&#10;  L 428.35 798.43&#10;  Q 428.35 799.34 427.44 799.34&#10;  L 424.72 799.34&#10;  Q 423.66 799.34 423.66 798.28&#10;  L 423.66 778.31&#10;  A 0.46 0.45 -89.4 0 1 424.12 777.85&#10;  Q 431.64 777.94 433.50 777.92&#10;  C 437.70 777.88 439.97 783.34 439.56 786.71&#10;  C 439.35 788.38 437.72 790.37 436.84 791.99&#10;  Z&#10;  M 428.12 782.41&#10;  L 428.12 787.65&#10;  A 0.40 0.40 0.0 0 0 428.51 788.05&#10;  L 432.30 788.06&#10;  A 2.86 2.85 -89.9 0 0 435.16 785.21&#10;  L 435.16 784.89&#10;  A 2.86 2.85 -89.9 0 0 432.32 782.02&#10;  L 428.53 782.01&#10;  A 0.40 0.40 0.0 0 0 428.12 782.41&#10;  Z"/>
<path fill="#ffffff" d="&#10;  M 403.49 794.67&#10;  L 412.75 794.67&#10;  A 0.47 0.47 0.0 0 1 413.22 795.14&#10;  L 413.22 798.83&#10;  A 0.47 0.47 0.0 0 1 412.75 799.30&#10;  L 399.04 799.30&#10;  A 0.47 0.47 0.0 0 1 398.57 798.83&#10;  L 398.57 778.60&#10;  A 0.47 0.47 0.0 0 1 399.04 778.13&#10;  L 412.23 778.13&#10;  A 0.47 0.47 0.0 0 1 412.70 778.60&#10;  L 412.70 782.03&#10;  A 0.47 0.47 0.0 0 1 412.23 782.50&#10;  L 403.51 782.50&#10;  A 0.47 0.47 0.0 0 0 403.04 782.97&#10;  L 403.04 786.39&#10;  A 0.47 0.47 0.0 0 0 403.51 786.86&#10;  L 409.87 786.86&#10;  A 0.47 0.47 0.0 0 1 410.34 787.33&#10;  L 410.34 790.48&#10;  A 0.47 0.47 0.0 0 1 409.87 790.95&#10;  L 403.49 790.95&#10;  A 0.47 0.47 0.0 0 0 403.02 791.42&#10;  L 403.02 794.20&#10;  A 0.47 0.47 0.0 0 0 403.49 794.67&#10;  Z"/>
<ellipse fill="#95be80" fill-opacity="0.996" cx="0.00" cy="0.00" transform="translate(744.43,782.74) rotate(33.0)" rx="4.84" ry="4.66"/>
<ellipse fill="#95be80" fill-opacity="0.996" cx="0.00" cy="0.00" transform="translate(722.58,782.85) rotate(129.7)" rx="4.74" ry="4.49"/>
<path fill="#ffffff" d="&#10;  M 355.69 785.69&#10;  L 359.22 779.57&#10;  A 1.90 1.90 0.0 0 1 360.86 778.63&#10;  L 364.21 778.63&#10;  Q 365.15 778.63 364.68 779.44&#10;  L 358.22 790.63&#10;  A 4.00 3.96 -30.2 0 0 357.68 792.63&#10;  L 357.68 799.69&#10;  Q 357.68 800.27 357.11 800.27&#10;  L 353.78 800.27&#10;  Q 353.37 800.27 353.37 799.85&#10;  Q 353.46 796.16 353.42 794.51&#10;  Q 353.37 792.21 352.33 790.59&#10;  Q 349.56 786.27 345.74 779.14&#10;  A 0.24 0.23 75.4 0 1 345.94 778.79&#10;  L 350.65 778.79&#10;  A 0.42 0.41 75.0 0 1 351.01 779.00&#10;  L 354.87 785.69&#10;  Q 355.28 786.40 355.69 785.69&#10;  Z"/>
<path fill="#ffffff" d="&#10;  M 388.00 788.37&#10;  A 0.39 0.39 0.0 0 0 388.01 789.03&#10;  C 391.11 790.89 390.85 795.59 388.74 797.90&#10;  Q 387.30 799.48 383.93 799.56&#10;  Q 377.44 799.72 374.85 799.66&#10;  A 0.66 0.66 0.0 0 1 374.21 799.00&#10;  L 374.21 779.49&#10;  A 0.94 0.92 -0.3 0 1 375.14 778.57&#10;  Q 375.44 778.56 383.50 778.51&#10;  Q 386.63 778.49 388.22 779.84&#10;  Q 390.37 781.68 390.00 785.01&#10;  Q 389.76 787.25 388.00 788.37&#10;  Z&#10;  M 378.56 783.05&#10;  L 378.66 786.87&#10;  A 0.40 0.40 0.0 0 0 379.07 787.26&#10;  L 382.38 787.17&#10;  A 3.09 1.84 -1.5 0 0 385.42 785.25&#10;  L 385.40 784.31&#10;  A 3.09 1.84 -1.5 0 0 382.26 782.55&#10;  L 378.95 782.64&#10;  A 0.40 0.40 0.0 0 0 378.56 783.05&#10;  Z&#10;  M 378.52 791.97&#10;  L 378.63 795.05&#10;  A 0.59 0.59 0.0 0 0 379.24 795.62&#10;  L 383.03 795.48&#10;  A 2.84 1.85 -2.1 0 0 385.80 793.53&#10;  L 385.78 792.97&#10;  A 2.84 1.85 -2.1 0 0 382.87 791.22&#10;  L 379.08 791.36&#10;  A 0.59 0.59 0.0 0 0 378.52 791.97&#10;  Z"/>
<ellipse fill="#95be80" fill-opacity="0.996" cx="0.00" cy="0.00" transform="translate(700.43,783.12) rotate(-11.2)" rx="4.93" ry="4.66"/>
<path fill="#ffffff" d="&#10;  M 326.95 786.91&#10;  Q 326.82 791.90 327.24 793.97&#10;  Q 327.55 795.50 329.50 796.19&#10;  Q 329.94 796.35 330.34 796.10&#10;  L 333.70 794.06&#10;  Q 334.08 793.84 334.45 794.06&#10;  L 336.98 795.52&#10;  Q 337.82 796.00 337.20 796.74&#10;  Q 331.39 803.73 324.63 798.13&#10;  C 322.02 795.98 322.58 791.55 322.56 787.52&#10;  Q 322.55 783.90 323.60 782.40&#10;  Q 325.57 779.59 328.05 779.02&#10;  Q 333.80 777.70 336.95 783.53&#10;  A 0.63 0.63 0.0 0 1 336.72 784.37&#10;  L 334.33 785.82&#10;  A 0.75 0.73 44.3 0 1 333.58 785.82&#10;  Q 333.14 785.56 332.96 785.03&#10;  Q 332.80 784.55 332.39 784.25&#10;  Q 330.15 782.61 328.29 783.86&#10;  Q 327.01 784.73 326.95 786.91&#10;  Z"/>
<circle fill="#95be80" fill-opacity="0.996" cx="285.06" cy="787.24" r="4.77"/>
<circle fill="#95be80" fill-opacity="0.996" cx="240.66" cy="787.59" r="4.72"/>
<circle fill="#95be80" fill-opacity="0.996" cx="262.47" cy="787.44" r="4.74"/>
<path fill="#a3c894" fill-opacity="0.514" d="&#10;  M 436.84 791.99&#10;  Q 437.00 792.46 436.75 792.81&#10;  Q 436.95 792.46 436.84 791.99&#10;  Z"/>
<path fill="#95be80" fill-opacity="0.996" d="&#10;  M 482.01 822.26&#10;  C 478.56 825.60 477.62 830.28 478.51 834.86&#10;  Q 478.81 836.38 477.32 837.01&#10;  L 476.93 837.17&#10;  Q 475.44 837.81 475.15 835.89&#10;  Q 473.60 825.80 479.93 818.68&#10;  Q 484.23 813.84 490.27 813.01&#10;  C 499.81 811.70 507.61 815.79 511.41 824.86&#10;  Q 514.58 832.43 510.08 839.18&#10;  Q 509.79 839.61 509.79 840.13&#10;  L 509.79 841.41&#10;  A 1.25 1.24 -24.8 0 1 509.49 842.22&#10;  Q 505.19 847.20 500.58 848.59&#10;  Q 486.97 852.68 478.09 842.07&#10;  A 0.97 0.97 0.0 0 1 478.20 840.72&#10;  L 490.41 830.00&#10;  A 0.64 0.64 0.0 0 0 490.42 829.05&#10;  L 483.07 822.25&#10;  Q 482.53 821.75 482.01 822.26&#10;  Z&#10;  M 493.56 827.30&#10;  Q 494.04 827.29 495.00 826.50&#10;  Q 498.91 823.27 502.18 819.69&#10;  A 0.71 0.71 0.0 0 0 502.12 818.67&#10;  C 499.92 816.77 496.18 816.09 493.42 816.12&#10;  C 490.66 816.16 486.94 816.94 484.79 818.89&#10;  A 0.71 0.71 0.0 0 0 484.75 819.91&#10;  Q 488.11 823.41 492.11 826.54&#10;  Q 493.08 827.30 493.56 827.30&#10;  Z&#10;  M 508.71 836.76&#10;  Q 509.61 830.38 509.30 829.00&#10;  Q 508.50 825.39 506.50 822.15&#10;  A 1.24 1.24 0.0 0 0 504.62 821.86&#10;  L 497.32 828.27&#10;  A 1.05 1.04 45.9 0 0 497.30 829.82&#10;  L 507.79 839.54&#10;  Q 508.23 839.95 508.52 839.41&#10;  Q 508.66 839.17 508.67 838.25&#10;  Q 508.69 836.87 508.71 836.76&#10;  Z&#10;  M 493.47 831.28&#10;  L 484.82 838.48&#10;  A 2.93 2.87 55.5 0 0 484.18 842.13&#10;  Q 484.52 842.73 486.33 843.99&#10;  Q 494.00 849.30 501.55 844.01&#10;  Q 503.39 842.71 504.05 840.33&#10;  Q 504.19 839.82 503.80 839.47&#10;  L 495.02 831.32&#10;  Q 494.26 830.62 493.47 831.28&#10;  Z"/>
<circle fill="#bce39f" cx="638.83" cy="822.85" r="2.70"/>
<ellipse fill="#95be80" fill-opacity="0.996" cx="0.00" cy="0.00" transform="translate(599.04,823.19) rotate(108.6)" rx="2.59" ry="2.42"/>
<circle fill="#95be80" fill-opacity="0.996" cx="562.82" cy="823.65" r="2.90"/>
<ellipse fill="#95be80" fill-opacity="0.996" cx="0.00" cy="0.00" transform="translate(579.15,823.44) rotate(100.4)" rx="2.62" ry="2.34"/>
<circle fill="#bce39f" cx="618.91" cy="823.24" r="2.08"/>
<ellipse fill="#95be80" fill-opacity="0.996" cx="0.00" cy="0.00" transform="translate(547.45,824.05) rotate(30.1)" rx="2.61" ry="2.38"/>
<circle fill="#bce39f" cx="440.05" cy="824.93" r="2.64"/>
<circle fill="#95be80" fill-opacity="0.996" cx="408.19" cy="825.23" r="2.74"/>
<circle fill="#95be80" fill-opacity="0.996" cx="424.79" cy="825.06" r="2.64"/>
<circle fill="#bce39f" cx="388.32" cy="825.47" r="2.53"/>
<circle fill="#95be80" fill-opacity="0.996" cx="531.36" cy="824.47" r="1.41"/>
<circle fill="#95be80" fill-opacity="0.996" cx="348.67" cy="825.87" r="2.49"/>
<ellipse fill="#95be80" fill-opacity="0.996" cx="0.00" cy="0.00" transform="translate(368.99,825.73) rotate(82.8)" rx="2.36" ry="2.17"/>
<circle fill="#95be80" fill-opacity="0.996" cx="456.96" cy="825.16" r="1.61"/>
<path fill="#95be80" fill-opacity="0.996" d="&#10;  M 481.43 829.33&#10;  A 0.44 0.44 0.0 0 1 481.87 828.89&#10;  L 482.60 828.90&#10;  A 3.39 1.06 0.2 0 1 485.99 829.97&#10;  L 485.99 830.11&#10;  A 3.39 1.06 0.2 0 1 482.60 831.16&#10;  L 481.87 831.15&#10;  A 0.44 0.44 0.0 0 1 481.43 830.71&#10;  L 481.43 829.33&#10;  Z"/>
<path fill="#95be80" fill-opacity="0.996" d="&#10;  M 505.40 828.59&#10;  A 0.44 0.44 0.0 0 1 505.90 828.97&#10;  L 505.92 829.13&#10;  A 2.78 2.35 82.5 0 1 503.95 832.19&#10;  L 503.91 832.20&#10;  A 2.78 2.35 82.5 0 1 501.22 829.75&#10;  L 501.20 829.59&#10;  A 0.44 0.44 0.0 0 1 501.58 829.10&#10;  L 505.40 828.59&#10;  Z"/>
<path fill="#95be80" fill-opacity="0.996" d="&#10;  M 493.85 839.91&#10;  L 496.27 838.83&#10;  A 0.24 0.24 0.0 0 1 496.60 838.99&#10;  Q 496.65 839.15 496.54 839.24&#10;  Q 494.59 840.91 492.15 840.60&#10;  Q 491.38 840.49 491.09 839.78&#10;  Q 490.79 839.06 491.51 839.35&#10;  L 492.95 839.92&#10;  A 1.19 1.18 -45.3 0 0 493.85 839.91&#10;  Z"/>
</svg>