<?xml version="1.0" standalone="no"?><!DOCTYPE svg PUBLIC "-//W3C//DTD SVG 1.1//EN"
        "http://www.w3.org/Graphics/SVG/1.1/DTD/svg11.dtd">
<svg t="1744029415802" class="icon" viewBox="0 0 1024 1024" version="1.1" xmlns="http://www.w3.org/2000/svg" p-id="8613"
     width="16" height="16" xmlns:xlink="http://www.w3.org/1999/xlink">
    <path d="M641.706667 388.437333a179.541333 179.541333 0 1 0 0 253.269334 180.224 180.224 0 0 0 0-253.269334z"
          fill="#dbdbdb" p-id="8614"></path>
    <path d="M916.821333 856.064l-56.661333-56.661333 12.288-15.701334a449.877333 449.877333 0 0 0 0-533.845333l-12.288-16.384 53.930667-53.248a48.264533 48.264533 0 0 0-68.266667-68.266667l-53.248 53.248-15.701333-11.605333a450.56 450.56 0 0 0-534.528 0l-16.384 12.288-54.613334-54.613333a48.264533 48.264533 0 0 0-68.266666 68.266666l55.978666 55.978667-12.288 16.384a450.56 450.56 0 0 0 0 529.066667l11.605334 15.701333-58.026667 58.709333a48.264533 48.264533 0 0 0 68.266667 68.266667l58.709333-58.709333 16.384 12.288a449.877333 449.877333 0 0 0 526.336 0l16.384-11.605334 56.661333 56.661334a48.264533 48.264533 0 0 0 68.266667-68.266667l5.461333 2.048zM682.666667 750.933333l48.469333 48.469334-24.576 15.701333a355.669333 355.669333 0 0 1-380.245333 0l-25.258667-15.701333 47.104-47.104a48.264533 48.264533 0 0 0-68.266667-68.266667l-47.104 47.104-15.701333-24.576a357.034667 357.034667 0 0 1 0-381.610667l15.701333-24.576 49.152 49.152a48.264533 48.264533 0 1 0 68.266667-68.266666l-50.517333-50.517334 23.893333-15.701333a356.352 356.352 0 0 1 388.437333 0l23.893334 15.701333-53.248 54.613334a48.264533 48.264533 0 0 0 68.266666 68.266666l51.882667-51.882666 15.701333 24.576a354.986667 354.986667 0 0 1 0 387.072l-15.701333 23.893333-56.661333-49.152a46.421333 46.421333 0 0 0-68.266667 0A45.738667 45.738667 0 0 0 682.666667 750.933333z"
          fill="#dbdbdb" p-id="8615"></path>
</svg>